<?xml version="1.0" standalone="yes"?>
<svg xmlns="http://www.w3.org/2000/svg" width="512" height="512">
<path style="fill:#fefefe; stroke:none;" d="M0 0L0 512L512 512L512 0L0 0z"/>
<path style="fill:#3b5999; stroke:none;" d="M6 10L6 504L507 504L507 10L6 10z"/>
<path style="fill:#8a9bc0; stroke:none;" d="M141 138L141 139L145 139L141 138z"/>
<path style="fill:#c5cdde; stroke:none;" d="M145 138L145 139L150 139L145 138z"/>
<path style="fill:#fefefe; stroke:none;" d="M150 138.425C126.14 141.443 104.383 146.983 85 162.286C34.346 202.28 27.539 286.278 69.3002 335C90.8666 360.161 123.355 373.052 156 373C170.477 372.977 184.887 369.085 198 363.136C214.986 355.429 228.09 342.988 238.845 328C241.521 324.27 249.201 314.148 244.396 309.623C239.941 305.428 235.542 314.136 233.797 317C225.316 330.917 213.385 343.74 199 351.688C165.721 370.073 130.801 355.472 107.174 329C75.7239 293.764 74.7608 236.664 92.5787 195C105.178 165.539 132.745 143.151 166 148.439C190.04 152.262 209.713 171.991 221.796 192C224.359 196.243 231.553 217.761 237.726 216.029C242.656 214.646 240.023 203.528 240.001 200C239.912 186.199 238.902 171.704 237.285 158C236.783 153.738 238.211 146.76 234.486 143.623C228.248 138.369 221.867 155.787 215 155.442C208.898 155.136 200.756 148.936 195 146.604C181.788 141.253 164.338 136.612 150 138.425z"/>
<path style="fill:#c5cdde; stroke:none;" d="M157 138L157 139L162 139L157 138z"/>
<path style="fill:#8a9bc0; stroke:none;" d="M162 138L162 139L166 139L162 138M134.667 139.333L135.333 139.667L134.667 139.333z"/>
<path style="fill:#acb8d1; stroke:none;" d="M136 139L137 140L136 139z"/>
<path style="fill:#c5cdde; stroke:none;" d="M137.667 139.333L138.333 139.667L137.667 139.333M168.667 139.333L169.333 139.667L168.667 139.333z"/>
<path style="fill:#8a9bc0; stroke:none;" d="M170.667 139.333L171.333 139.667L170.667 139.333M130 140L131 141L130 140z"/>
<path style="fill:#acb8d1; stroke:none;" d="M131 140L132 141L131 140z"/>
<path style="fill:#c5cdde; stroke:none;" d="M132 140L133 141L132 140M174 140L175 141L174 140z"/>
<path style="fill:#acb8d1; stroke:none;" d="M175 140L176 141L175 140z"/>
<path style="fill:#8a9bc0; stroke:none;" d="M176 140L177 141L176 140M126 141L127 142L126 141z"/>
<path style="fill:#c5cdde; stroke:none;" d="M127 141L128 142L127 141M178 141L179 142L178 141z"/>
<path style="fill:#acb8d1; stroke:none;" d="M179 141L180 142L179 141z"/>
<path style="fill:#8a9bc0; stroke:none;" d="M180 141L181 142L180 141M231.667 141.333L232.333 141.667L231.667 141.333M263 141L264 142L263 141z"/>
<path style="fill:#c5cdde; stroke:none;" d="M264 141L264 142L272 142L264 141z"/>
<path style="fill:#acb8d1; stroke:none;" d="M272 141L273 142L272 141z"/>
<path style="fill:#8a9bc0; stroke:none;" d="M273 141L273 142L281 142L273 141M122 142L123 143L122 142z"/>
<path style="fill:#acb8d1; stroke:none;" d="M123 142L124 143L123 142z"/>
<path style="fill:#c5cdde; stroke:none;" d="M124 142L125 143L124 142M182 142L183 143L182 142z"/>
<path style="fill:#acb8d1; stroke:none;" d="M183 142L184 143L183 142z"/>
<path style="fill:#8a9bc0; stroke:none;" d="M184 142L185 143L184 142z"/>
<path style="fill:#acb8d1; stroke:none;" d="M229 142L230 143L229 142M234 142L235 143L234 142M261 142L262 143L261 142z"/>
<path style="fill:#fefefe; stroke:none;" d="M454 369C457.475 351.078 460.688 333.076 463.271 315C463.843 310.995 467.161 299.957 463.258 297.047C459.503 294.246 456.107 300.802 452.896 301.682C443.542 304.246 430.703 302 421 302C427.324 283.307 437.5 262.757 429 243C432.19 242.354 440.428 238.256 436.943 233.662C434.633 230.618 429.966 237.836 426.285 235.454C420.606 231.78 417.331 225.574 411 222.377C395.024 214.312 371.78 220.5 365 238L358 232C348.743 233.546 356.412 241.869 362 243C354.22 264.186 364.275 281.972 370 302L330 302C330 274.642 331 247.29 331 220C331 204.029 328.645 185.536 332.928 170C335.646 160.142 345.42 153.724 355 151.808C358.437 151.12 369.364 152.307 369.364 146.95C369.364 140.515 351.158 143 347 143C325.293 143 303.638 142.545 282 142.015C278.036 141.918 263.462 139.854 261.662 144.275C259.277 150.132 273.764 151.131 277 152.454C290.178 157.839 295.548 169.67 297.05 183C300.128 210.317 298 238.489 298 266C298 288.564 300.323 312.72 296.385 335C293.288 352.524 283.081 360.156 266.001 362.079C263.734 362.335 257.693 363.703 260.086 367.316C262.43 370.853 269.423 369.999 273 370C284.979 370.005 297.088 369.303 309 368.17C356.754 363.625 406.211 369.986 454 369z"/>
<path style="fill:#c5cdde; stroke:none;" d="M287 142L287 143L294 143L287 142z"/>
<path style="fill:#8a9bc0; stroke:none;" d="M294 142L294 143L315 143L294 142M343 142L343 143L367 143L343 142M119 143L120 144L119 143z"/>
<path style="fill:#acb8d1; stroke:none;" d="M120 143L121 144L120 143M186 143L187 144L186 143z"/>
<path style="fill:#8a9bc0; stroke:none;" d="M187 143L188 144L187 143z"/>
<path style="fill:#acb8d1; stroke:none;" d="M228 143L229 144L228 143M235 143L236 144L235 143M368 143L369 144L368 143z"/>
<path style="fill:#8a9bc0; stroke:none;" d="M116 144L117 145L116 144z"/>
<path style="fill:#acb8d1; stroke:none;" d="M117 144L118 145L117 144M189 144L190 145L189 144z"/>
<path style="fill:#8a9bc0; stroke:none;" d="M190 144L191 145L190 144z"/>
<path style="fill:#acb8d1; stroke:none;" d="M227 144L228 145L227 144z"/>
<path style="fill:#8a9bc0; stroke:none;" d="M236 144L237 145L236 144M260 144L261 145L260 144z"/>
<path style="fill:#acb8d1; stroke:none;" d="M369 144L370 145L369 144z"/>
<path style="fill:#8a9bc0; stroke:none;" d="M114 145L115 146L114 145z"/>
<path style="fill:#c5cdde; stroke:none;" d="M115 145L116 146L115 145z"/>
<path style="fill:#acb8d1; stroke:none;" d="M192 145L193 146L192 145z"/>
<path style="fill:#8a9bc0; stroke:none;" d="M226 145L227 146L226 145z"/>
<path style="fill:#acb8d1; stroke:none;" d="M236 145L237 146L236 145z"/>
<path style="fill:#c5cdde; stroke:none;" d="M260 145L261 146L260 145z"/>
<path style="fill:#8a9bc0; stroke:none;" d="M111 146L112 147L111 146z"/>
<path style="fill:#acb8d1; stroke:none;" d="M112 146L113 147L112 146z"/>
<path style="fill:#c5cdde; stroke:none;" d="M194 146L195 147L194 146z"/>
<path style="fill:#8a9bc0; stroke:none;" d="M195 146L196 147L195 146z"/>
<path style="fill:#c5cdde; stroke:none;" d="M226 146L227 147L226 146M236 146L237 147L236 146z"/>
<path style="fill:#8a9bc0; stroke:none;" d="M260 146L261 147L260 146M370.333 146.667L370.667 147.333L370.333 146.667M109 147L110 148L109 147z"/>
<path style="fill:#c5cdde; stroke:none;" d="M110 147L111 148L110 147M153 147L153 148L158 148L153 147z"/>
<path style="fill:#acb8d1; stroke:none;" d="M197 147L198 148L197 147z"/>
<path style="fill:#8a9bc0; stroke:none;" d="M198 147L199 148L198 147z"/>
<path style="fill:#acb8d1; stroke:none;" d="M225 147L226 148L225 147z"/>
<path style="fill:#8a9bc0; stroke:none;" d="M107 148L108 149L107 148z"/>
<path style="fill:#c5cdde; stroke:none;" d="M108 148L109 149L108 148M144.667 148.333L145.333 148.667L144.667 148.333z"/>
<path style="fill:#8a9bc0; stroke:none;" d="M146 148L146 149L149 149L146 148M162 148L162 149L165 149L162 148z"/>
<path style="fill:#acb8d1; stroke:none;" d="M165 148L166 149L165 148z"/>
<path style="fill:#c5cdde; stroke:none;" d="M166 148L167 149L166 148M199 148L200 149L199 148z"/>
<path style="fill:#8a9bc0; stroke:none;" d="M200 148L201 149L200 148M224 148L225 149L224 148M261 148L262 149L261 148z"/>
<path style="fill:#c5cdde; stroke:none;" d="M262 148L263 149L262 148z"/>
<path style="fill:#acb8d1; stroke:none;" d="M105 149L106 150L105 149z"/>
<path style="fill:#c5cdde; stroke:none;" d="M140 149L141 150L140 149z"/>
<path style="fill:#8a9bc0; stroke:none;" d="M141.667 149.333L142.333 149.667L141.667 149.333M169 149L170 150L169 149z"/>
<path style="fill:#acb8d1; stroke:none;" d="M170 149L171 150L170 149z"/>
<path style="fill:#c5cdde; stroke:none;" d="M171 149L172 150L171 149M201 149L202 150L201 149z"/>
<path style="fill:#8a9bc0; stroke:none;" d="M202 149L203 150L202 149M223 149L219 154L223 149M237 149L237 156L238 156L237 149M263 149L264 150L263 149z"/>
<path style="fill:#c5cdde; stroke:none;" d="M264 149L265 150L264 149z"/>
<path style="fill:#acb8d1; stroke:none;" d="M369 149L370 150L369 149M103 150L104 151L103 150z"/>
<path style="fill:#c5cdde; stroke:none;" d="M136 150L137 151L136 150z"/>
<path style="fill:#acb8d1; stroke:none;" d="M137 150L138 151L137 150z"/>
<path style="fill:#8a9bc0; stroke:none;" d="M138 150L139 151L138 150M173 150L174 151L173 150z"/>
<path style="fill:#c5cdde; stroke:none;" d="M174 150L175 151L174 150M203 150L204 151L203 150z"/>
<path style="fill:#8a9bc0; stroke:none;" d="M204 150L205 151L204 150z"/>
<path style="fill:#acb8d1; stroke:none;" d="M223 150L224 151L223 150z"/>
<path style="fill:#8a9bc0; stroke:none;" d="M266 150L266 151L270 151L266 150z"/>
<path style="fill:#c5cdde; stroke:none;" d="M270.667 150.333L271.333 150.667L270.667 150.333M367 150L368 151L367 150z"/>
<path style="fill:#8a9bc0; stroke:none;" d="M368 150L369 151L368 150z"/>
<path style="fill:#acb8d1; stroke:none;" d="M101 151L102 152L101 151M134 151L135 152L134 151z"/>
<path style="fill:#8a9bc0; stroke:none;" d="M135 151L136 152L135 151M176 151L177 152L176 151z"/>
<path style="fill:#c5cdde; stroke:none;" d="M177 151L178 152L177 151z"/>
<path style="fill:#acb8d1; stroke:none;" d="M206 151L207 152L206 151M222 151L223 152L222 151z"/>
<path style="fill:#8a9bc0; stroke:none;" d="M273 151L274 152L273 151z"/>
<path style="fill:#acb8d1; stroke:none;" d="M274 151L275 152L274 151z"/>
<path style="fill:#c5cdde; stroke:none;" d="M356.667 151.333L357.333 151.667L356.667 151.333z"/>
<path style="fill:#8a9bc0; stroke:none;" d="M358 151L358 152L366 152L358 151M99 152L100 153L99 152z"/>
<path style="fill:#c5cdde; stroke:none;" d="M100 152L101 153L100 152M131 152L132 153L131 152z"/>
<path style="fill:#8a9bc0; stroke:none;" d="M132 152L133 153L132 152M178 152L179 153L178 152z"/>
<path style="fill:#acb8d1; stroke:none;" d="M179 152L180 153L179 152M208 152L209 153L208 152M221 152L222 153L221 152z"/>
<path style="fill:#8a9bc0; stroke:none;" d="M276 152L277 153L276 152z"/>
<path style="fill:#c5cdde; stroke:none;" d="M277 152L278 153L277 152M351 152L352 153L351 152z"/>
<path style="fill:#acb8d1; stroke:none;" d="M352 152L353 153L352 152z"/>
<path style="fill:#8a9bc0; stroke:none;" d="M353 152L354 153L353 152M97 153L98 154L97 153z"/>
<path style="fill:#c5cdde; stroke:none;" d="M98 153L99 154L98 153M129 153L130 154L129 153z"/>
<path style="fill:#8a9bc0; stroke:none;" d="M130 153L131 154L130 153z"/>
<path style="fill:#acb8d1; stroke:none;" d="M181 153L182 154L181 153z"/>
<path style="fill:#8a9bc0; stroke:none;" d="M210 153L211 154L210 153z"/>
<path style="fill:#acb8d1; stroke:none;" d="M220 153L221 154L220 153z"/>
<path style="fill:#8a9bc0; stroke:none;" d="M278 153L279 154L278 153z"/>
<path style="fill:#acb8d1; stroke:none;" d="M279 153L280 154L279 153z"/>
<path style="fill:#c5cdde; stroke:none;" d="M348 153L349 154L348 153z"/>
<path style="fill:#acb8d1; stroke:none;" d="M349 153L350 154L349 153z"/>
<path style="fill:#8a9bc0; stroke:none;" d="M95 154L96 155L95 154z"/>
<path style="fill:#acb8d1; stroke:none;" d="M96 154L97 155L96 154z"/>
<path style="fill:#c5cdde; stroke:none;" d="M127 154L128 155L127 154z"/>
<path style="fill:#8a9bc0; stroke:none;" d="M128 154L129 155L128 154M183 154L184 155L183 154z"/>
<path style="fill:#c5cdde; stroke:none;" d="M211 154L212 155L211 154z"/>
<path style="fill:#8a9bc0; stroke:none;" d="M212 154L213 155L212 154M218 154L219 155L218 154M280 154L281 155L280 154z"/>
<path style="fill:#acb8d1; stroke:none;" d="M281 154L282 155L281 154z"/>
<path style="fill:#c5cdde; stroke:none;" d="M346 154L347 155L346 154z"/>
<path style="fill:#8a9bc0; stroke:none;" d="M347 154L348 155L347 154z"/>
<path style="fill:#acb8d1; stroke:none;" d="M94 155L95 156L94 155z"/>
<path style="fill:#c5cdde; stroke:none;" d="M125 155L126 156L125 155z"/>
<path style="fill:#8a9bc0; stroke:none;" d="M126 155L127 156L126 155z"/>
<path style="fill:#acb8d1; stroke:none;" d="M185 155L186 156L185 155z"/>
<path style="fill:#c5cdde; stroke:none;" d="M213 155L214 156L213 155z"/>
<path style="fill:#8a9bc0; stroke:none;" d="M214 155L215 156L214 155M217 155L218 156L217 155M282 155L283 156L282 155z"/>
<path style="fill:#c5cdde; stroke:none;" d="M283 155L284 156L283 155M344 155L345 156L344 155z"/>
<path style="fill:#8a9bc0; stroke:none;" d="M345 155L346 156L345 155M92 156L93 157L92 156z"/>
<path style="fill:#c5cdde; stroke:none;" d="M93 156L94 157L93 156z"/>
<path style="fill:#acb8d1; stroke:none;" d="M124 156L125 157L124 156M187 156L188 157L187 156M215 156L216 157L215 156z"/>
<path style="fill:#8a9bc0; stroke:none;" d="M216 156L217 157L216 156z"/>
<path style="fill:#c5cdde; stroke:none;" d="M237 156L237 160L238 160L237 156z"/>
<path style="fill:#acb8d1; stroke:none;" d="M284 156L285 157L284 156M343 156L344 157L343 156M91 157L92 158L91 157M122 157L123 158L122 157z"/>
<path style="fill:#8a9bc0; stroke:none;" d="M123 157L124 158L123 157M188 157L189 158L188 157z"/>
<path style="fill:#c5cdde; stroke:none;" d="M189 157L190 158L189 157z"/>
<path style="fill:#acb8d1; stroke:none;" d="M285 157L286 158L285 157z"/>
<path style="fill:#c5cdde; stroke:none;" d="M341 157L342 158L341 157z"/>
<path style="fill:#8a9bc0; stroke:none;" d="M342 157L343 158L342 157M89 158L90 159L89 158z"/>
<path style="fill:#c5cdde; stroke:none;" d="M90 158L91 159L90 158z"/>
<path style="fill:#8a9bc0; stroke:none;" d="M121 158L122 159L121 158z"/>
<path style="fill:#acb8d1; stroke:none;" d="M190 158L191 159L190 158z"/>
<path style="fill:#8a9bc0; stroke:none;" d="M286 158L287 159L286 158z"/>
<path style="fill:#acb8d1; stroke:none;" d="M340 158L341 159L340 158M88 159L89 160L88 159z"/>
<path style="fill:#c5cdde; stroke:none;" d="M119 159L120 160L119 159z"/>
<path style="fill:#8a9bc0; stroke:none;" d="M120 159L121 160L120 159M191 159L192 160L191 159z"/>
<path style="fill:#c5cdde; stroke:none;" d="M192 159L193 160L192 159z"/>
<path style="fill:#8a9bc0; stroke:none;" d="M287 159L288 160L287 159z"/>
<path style="fill:#acb8d1; stroke:none;" d="M339 159L340 160L339 159z"/>
<path style="fill:#8a9bc0; stroke:none;" d="M86 160L87 161L86 160z"/>
<path style="fill:#acb8d1; stroke:none;" d="M87 160L88 161L87 160M118 160L119 161L118 160M193 160L194 161L193 160z"/>
<path style="fill:#8a9bc0; stroke:none;" d="M288 160L289 161L288 160M338 160L339 161L338 160M85 161L86 162L85 161M117 161L118 162L117 161M194 161L195 162L194 161z"/>
<path style="fill:#acb8d1; stroke:none;" d="M289 161L290 162L289 161M337 161L338 162L337 161M84 162L85 163L84 162z"/>
<path style="fill:#c5cdde; stroke:none;" d="M115 162L116 163L115 162z"/>
<path style="fill:#8a9bc0; stroke:none;" d="M116 162L117 163L116 162M195 162L196 163L195 162z"/>
<path style="fill:#acb8d1; stroke:none;" d="M196 162L197 163L196 162M290 162L291 163L290 162M336 162L337 163L336 162M83 163L84 164L83 163M114 163L115 164L114 163z"/>
<path style="fill:#8a9bc0; stroke:none;" d="M115 163L116 164L115 163z"/>
<path style="fill:#acb8d1; stroke:none;" d="M197 163L198 164L197 163z"/>
<path style="fill:#c5cdde; stroke:none;" d="M291 163L292 164L291 163M335 163L336 164L335 163z"/>
<path style="fill:#8a9bc0; stroke:none;" d="M81 164L80 166L81 164z"/>
<path style="fill:#acb8d1; stroke:none;" d="M82 164L83 165L82 164M113 164L114 165L113 164M198 164L199 165L198 164z"/>
<path style="fill:#8a9bc0; stroke:none;" d="M291 164L292 165L291 164M335 164L336 165L335 164z"/>
<path style="fill:#c5cdde; stroke:none;" d="M81 165L82 166L81 165z"/>
<path style="fill:#acb8d1; stroke:none;" d="M112 165L113 166L112 165z"/>
<path style="fill:#8a9bc0; stroke:none;" d="M199 165L200 166L199 165M238 165L238 172L239 172L238 165z"/>
<path style="fill:#c5cdde; stroke:none;" d="M292 165L293 166L292 165z"/>
<path style="fill:#acb8d1; stroke:none;" d="M334 165L335 166L334 165z"/>
<path style="fill:#8a9bc0; stroke:none;" d="M79 166L80 167L79 166z"/>
<path style="fill:#acb8d1; stroke:none;" d="M111 166L112 167L111 166z"/>
<path style="fill:#8a9bc0; stroke:none;" d="M200 166L201 167L200 166M292 166L293 167L292 166z"/>
<path style="fill:#acb8d1; stroke:none;" d="M78 167L79 168L78 167M110 167L111 168L110 167z"/>
<path style="fill:#8a9bc0; stroke:none;" d="M201 167L207 173L201 167z"/>
<path style="fill:#c5cdde; stroke:none;" d="M202 167L203 168L202 167M293 167L294 168L293 167M333 167L334 168L333 167z"/>
<path style="fill:#acb8d1; stroke:none;" d="M77 168L78 169L77 168M109 168L110 169L109 168M203 168L204 169L203 168z"/>
<path style="fill:#8a9bc0; stroke:none;" d="M293 168L294 169L293 168M333.333 168.667L333.667 169.333L333.333 168.667z"/>
<path style="fill:#acb8d1; stroke:none;" d="M76 169L77 170L76 169M108 169L109 170L108 169M204 169L205 170L204 169M75 170L76 171L75 170M107 170L108 171L107 170M205 170L206 171L205 170M294 170L295 171L294 170M74 171L75 172L74 171z"/>
<path style="fill:#c5cdde; stroke:none;" d="M106 171L107 172L106 171z"/>
<path style="fill:#8a9bc0; stroke:none;" d="M107 171L108 172L107 171z"/>
<path style="fill:#acb8d1; stroke:none;" d="M206 171L207 172L206 171z"/>
<path style="fill:#8a9bc0; stroke:none;" d="M294 171L295 172L294 171z"/>
<path style="fill:#c5cdde; stroke:none;" d="M332.333 171.667L332.667 172.333L332.333 171.667z"/>
<path style="fill:#acb8d1; stroke:none;" d="M73 172L74 173L73 172z"/>
<path style="fill:#8a9bc0; stroke:none;" d="M106 172L107 173L106 172z"/>
<path style="fill:#c5cdde; stroke:none;" d="M238 172L238 176L239 176L238 172z"/>
<path style="fill:#acb8d1; stroke:none;" d="M72 173L73 174L72 173z"/>
<path style="fill:#8a9bc0; stroke:none;" d="M105 173L106 174L105 173M207 173L208 174L207 173z"/>
<path style="fill:#c5cdde; stroke:none;" d="M295 173L296 174L295 173z"/>
<path style="fill:#8a9bc0; stroke:none;" d="M332 173L332 177L333 177L332 173M71 174L72 175L71 174z"/>
<path style="fill:#acb8d1; stroke:none;" d="M104 174L105 175L104 174z"/>
<path style="fill:#8a9bc0; stroke:none;" d="M208 174L209 175L208 174M295.333 174.667L295.667 175.333L295.333 174.667M70 175L71 176L70 175z"/>
<path style="fill:#acb8d1; stroke:none;" d="M103 175L104 176L103 175z"/>
<path style="fill:#8a9bc0; stroke:none;" d="M209 175L210 176L209 175M69 176L70 177L69 176M103 176L104 177L103 176z"/>
<path style="fill:#acb8d1; stroke:none;" d="M210 176L211 177L210 176M69 177L70 178L69 177z"/>
<path style="fill:#8a9bc0; stroke:none;" d="M102 177L103 178L102 177z"/>
<path style="fill:#acb8d1; stroke:none;" d="M211 177L212 178L211 177M68 178L69 179L68 178M101 178L102 179L101 178M212 178L213 179L212 178z"/>
<path style="fill:#c5cdde; stroke:none;" d="M296 178L297 179L296 178z"/>
<path style="fill:#acb8d1; stroke:none;" d="M67 179L68 180L67 179z"/>
<path style="fill:#c5cdde; stroke:none;" d="M100 179L101 180L100 179z"/>
<path style="fill:#8a9bc0; stroke:none;" d="M212 179L213 180L212 179z"/>
<path style="fill:#acb8d1; stroke:none;" d="M296 179L297 180L296 179z"/>
<path style="fill:#8a9bc0; stroke:none;" d="M66 180L67 181L66 180M100 180L101 181L100 180M213 180L214 181L213 180M239 180L239 188L240 188L239 180M296 180L296 183L297 183L296 180M65 181L66 182L65 181z"/>
<path style="fill:#acb8d1; stroke:none;" d="M99 181L100 182L99 181M214 181L215 182L214 181z"/>
<path style="fill:#c5cdde; stroke:none;" d="M331 181L331 192L332 192L331 181z"/>
<path style="fill:#acb8d1; stroke:none;" d="M65 182L66 183L65 182M215 182L216 183L215 182M64 183L65 184L64 183M98 183L99 184L98 183z"/>
<path style="fill:#c5cdde; stroke:none;" d="M216 183L217 184L216 183z"/>
<path style="fill:#8a9bc0; stroke:none;" d="M63 184L64 185L63 184z"/>
<path style="fill:#c5cdde; stroke:none;" d="M97 184L98 185L97 184z"/>
<path style="fill:#8a9bc0; stroke:none;" d="M216 184L217 185L216 184z"/>
<path style="fill:#c5cdde; stroke:none;" d="M63 185L64 186L63 185z"/>
<path style="fill:#8a9bc0; stroke:none;" d="M97 185L98 186L97 185z"/>
<path style="fill:#acb8d1; stroke:none;" d="M217 185L218 186L217 185M62 186L63 187L62 186z"/>
<path style="fill:#c5cdde; stroke:none;" d="M96 186L97 187L96 186M218 186L219 187L218 186M297 186L297 189L298 189L297 186z"/>
<path style="fill:#8a9bc0; stroke:none;" d="M61 187L62 188L61 187M96 187L97 188L96 187M218 187L219 188L218 187z"/>
<path style="fill:#c5cdde; stroke:none;" d="M61 188L62 189L61 188M95 188L96 189L95 188z"/>
<path style="fill:#acb8d1; stroke:none;" d="M219 188L220 189L219 188z"/>
<path style="fill:#c5cdde; stroke:none;" d="M239 188L239 192L240 192L239 188z"/>
<path style="fill:#acb8d1; stroke:none;" d="M60 189L61 190L60 189z"/>
<path style="fill:#8a9bc0; stroke:none;" d="M95 189L96 190L95 189z"/>
<path style="fill:#c5cdde; stroke:none;" d="M220 189L221 190L220 189z"/>
<path style="fill:#acb8d1; stroke:none;" d="M297 189L298 190L297 189z"/>
<path style="fill:#8a9bc0; stroke:none;" d="M59 190L60 191L59 190z"/>
<path style="fill:#c5cdde; stroke:none;" d="M94 190L95 191L94 190z"/>
<path style="fill:#8a9bc0; stroke:none;" d="M220 190L221 191L220 190M297 190L297 199L298 199L297 190z"/>
<path style="fill:#c5cdde; stroke:none;" d="M59 191L60 192L59 191z"/>
<path style="fill:#8a9bc0; stroke:none;" d="M94 191L95 192L94 191z"/>
<path style="fill:#acb8d1; stroke:none;" d="M221 191L222 192L221 191z"/>
<path style="fill:#8a9bc0; stroke:none;" d="M58 192L59 193L58 192z"/>
<path style="fill:#c5cdde; stroke:none;" d="M93 192L94 193L93 192z"/>
<path style="fill:#8a9bc0; stroke:none;" d="M221 192L222 193L221 192z"/>
<path style="fill:#acb8d1; stroke:none;" d="M331 192L332 193L331 192z"/>
<path style="fill:#c5cdde; stroke:none;" d="M58 193L59 194L58 193z"/>
<path style="fill:#8a9bc0; stroke:none;" d="M93 193L94 194L93 193z"/>
<path style="fill:#acb8d1; stroke:none;" d="M222 193L223 194L222 193z"/>
<path style="fill:#8a9bc0; stroke:none;" d="M331 193L331 222L332 222L331 193z"/>
<path style="fill:#acb8d1; stroke:none;" d="M57 194L58 195L57 194z"/>
<path style="fill:#c5cdde; stroke:none;" d="M223 194L224 195L223 194z"/>
<path style="fill:#acb8d1; stroke:none;" d="M92 195L93 196L92 195z"/>
<path style="fill:#8a9bc0; stroke:none;" d="M223 195L224 196L223 195z"/>
<path style="fill:#acb8d1; stroke:none;" d="M56 196L57 197L56 196z"/>
<path style="fill:#c5cdde; stroke:none;" d="M224 196L225 197L224 196z"/>
<path style="fill:#8a9bc0; stroke:none;" d="M240 196L240 204L241 204L240 196M55 197L56 198L55 197z"/>
<path style="fill:#c5cdde; stroke:none;" d="M91 197L92 198L91 197z"/>
<path style="fill:#8a9bc0; stroke:none;" d="M224 197L225 198L224 197z"/>
<path style="fill:#acb8d1; stroke:none;" d="M55 198L56 199L55 198z"/>
<path style="fill:#8a9bc0; stroke:none;" d="M91 198L92 199L91 198z"/>
<path style="fill:#c5cdde; stroke:none;" d="M225 198L226 199L225 198z"/>
<path style="fill:#8a9bc0; stroke:none;" d="M54 199L55 200L54 199z"/>
<path style="fill:#c5cdde; stroke:none;" d="M90 199L91 200L90 199z"/>
<path style="fill:#8a9bc0; stroke:none;" d="M225 199L226 200L225 199z"/>
<path style="fill:#acb8d1; stroke:none;" d="M54 200L55 201L54 200M90 200L91 201L90 200z"/>
<path style="fill:#c5cdde; stroke:none;" d="M226 200L227 201L226 200z"/>
<path style="fill:#8a9bc0; stroke:none;" d="M226 201L227 202L226 201z"/>
<path style="fill:#acb8d1; stroke:none;" d="M53 202L54 203L53 202z"/>
<path style="fill:#c5cdde; stroke:none;" d="M89 202L90 203L89 202M227 202L228 203L227 202z"/>
<path style="fill:#8a9bc0; stroke:none;" d="M89 203L90 204L89 203M227 203L228 204L227 203M52 204L53 205L52 204z"/>
<path style="fill:#c5cdde; stroke:none;" d="M228 204L229 205L228 204M240 204L240 208L241 208L240 204M52 205L53 206L52 205M88 205L89 206L88 205z"/>
<path style="fill:#8a9bc0; stroke:none;" d="M228 205L229 206L228 205M51 206L52 207L51 206M88 206L89 207L88 206z"/>
<path style="fill:#c5cdde; stroke:none;" d="M51 207L52 208L51 207z"/>
<path style="fill:#acb8d1; stroke:none;" d="M229 207L230 208L229 207z"/>
<path style="fill:#c5cdde; stroke:none;" d="M87 208L88 209L87 208z"/>
<path style="fill:#8a9bc0; stroke:none;" d="M50 209L51 210L50 209z"/>
<path style="fill:#acb8d1; stroke:none;" d="M87 209L88 210L87 209z"/>
<path style="fill:#c5cdde; stroke:none;" d="M230 209L231 210L230 209M50 210L51 211L50 210z"/>
<path style="fill:#8a9bc0; stroke:none;" d="M87 210L88 211L87 210M230 210L231 211L230 210M49 211L50 212L49 211z"/>
<path style="fill:#c5cdde; stroke:none;" d="M231 211L232 212L231 211M240 211L240 214L241 214L240 211z"/>
<path style="fill:#acb8d1; stroke:none;" d="M49 212L50 213L49 212z"/>
<path style="fill:#c5cdde; stroke:none;" d="M86 212L87 213L86 212z"/>
<path style="fill:#8a9bc0; stroke:none;" d="M231 212L232 213L231 212M86 213L87 214L86 213z"/>
<path style="fill:#acb8d1; stroke:none;" d="M232 213L233 214L232 213z"/>
<path style="fill:#c5cdde; stroke:none;" d="M298 213L298 219L299 219L298 213z"/>
<path style="fill:#8a9bc0; stroke:none;" d="M48 214L49 215L48 214z"/>
<path style="fill:#c5cdde; stroke:none;" d="M233 214L234 215L233 214z"/>
<path style="fill:#acb8d1; stroke:none;" d="M240 214L241 215L240 214M48 215L49 216L48 215z"/>
<path style="fill:#8a9bc0; stroke:none;" d="M233 215L234 216L233 215M240 215L241 216L240 215z"/>
<path style="fill:#c5cdde; stroke:none;" d="M85 216L86 217L85 216z"/>
<path style="fill:#8a9bc0; stroke:none;" d="M234 216L235 217L234 216z"/>
<path style="fill:#acb8d1; stroke:none;" d="M235 216L236 217L235 216z"/>
<path style="fill:#c5cdde; stroke:none;" d="M238 216L239 217L238 216z"/>
<path style="fill:#8a9bc0; stroke:none;" d="M239 216L240 217L239 216M47 217L48 218L47 217M85.3333 217.667L85.6667 218.333L85.3333 217.667z"/>
<path style="fill:#acb8d1; stroke:none;" d="M47 218L48 219L47 218z"/>
<path style="fill:#8a9bc0; stroke:none;" d="M389.667 218.333L390.333 218.667L389.667 218.333z"/>
<path style="fill:#acb8d1; stroke:none;" d="M391.667 218.333L392.333 218.667L391.667 218.333z"/>
<path style="fill:#c5cdde; stroke:none;" d="M393 218L393 219L398 219L393 218z"/>
<path style="fill:#acb8d1; stroke:none;" d="M398.667 218.333L399.333 218.667L398.667 218.333z"/>
<path style="fill:#8a9bc0; stroke:none;" d="M400.667 218.333L401.333 218.667L400.667 218.333z"/>
<path style="fill:#c5cdde; stroke:none;" d="M47 219L48 220L47 219z"/>
<path style="fill:#8a9bc0; stroke:none;" d="M385.667 219.333L386.333 219.667L385.667 219.333z"/>
<path style="fill:#c5cdde; stroke:none;" d="M387 219L388 220L387 219M403 219L404 220L403 219z"/>
<path style="fill:#acb8d1; stroke:none;" d="M404 219L405 220L404 219z"/>
<path style="fill:#8a9bc0; stroke:none;" d="M405 219L406 220L405 219z"/>
<path style="fill:#c5cdde; stroke:none;" d="M84 220L85 221L84 220z"/>
<path style="fill:#acb8d1; stroke:none;" d="M383 220L384 221L383 220z"/>
<path style="fill:#c5cdde; stroke:none;" d="M384 220L385 221L384 220M406 220L407 221L406 220z"/>
<path style="fill:#acb8d1; stroke:none;" d="M407 220L408 221L407 220z"/>
<path style="fill:#8a9bc0; stroke:none;" d="M46 221L47 222L46 221z"/>
<path style="fill:#acb8d1; stroke:none;" d="M84 221L85 222L84 221M381 221L382 222L381 221z"/>
<path style="fill:#c5cdde; stroke:none;" d="M409 221L410 222L409 221z"/>
<path style="fill:#8a9bc0; stroke:none;" d="M410 221L411 222L410 221z"/>
<path style="fill:#c5cdde; stroke:none;" d="M46 222L47 223L46 222z"/>
<path style="fill:#8a9bc0; stroke:none;" d="M84.3333 222.667L84.6667 223.333L84.3333 222.667z"/>
<path style="fill:#acb8d1; stroke:none;" d="M379 222L380 223L379 222z"/>
<path style="fill:#c5cdde; stroke:none;" d="M411 222L412 223L411 222z"/>
<path style="fill:#8a9bc0; stroke:none;" d="M377 223L378 224L377 223z"/>
<path style="fill:#acb8d1; stroke:none;" d="M413 223L414 224L413 223z"/>
<path style="fill:#8a9bc0; stroke:none;" d="M45.3333 224.667L45.6667 225.333L45.3333 224.667z"/>
<path style="fill:#c5cdde; stroke:none;" d="M376 224L377 225L376 224M392 224L392 225L399 225L392 224M414 224L415 225L414 224z"/>
<path style="fill:#8a9bc0; stroke:none;" d="M415 224L416 225L415 224z"/>
<path style="fill:#c5cdde; stroke:none;" d="M83.3333 225.667L83.6667 226.333L83.3333 225.667z"/>
<path style="fill:#8a9bc0; stroke:none;" d="M374 225L375 226L374 225z"/>
<path style="fill:#c5cdde; stroke:none;" d="M387 225L388 226L387 225z"/>
<path style="fill:#acb8d1; stroke:none;" d="M388 225L389 226L388 225z"/>
<path style="fill:#8a9bc0; stroke:none;" d="M389 225L390 226L389 225z"/>
<path style="fill:#3b5999; stroke:none;" d="M379 230L379 231C386.055 232.057 390.697 235.403 395 241L396 241C400.488 235.235 405.621 231.649 413 231C403.018 222.73 389.685 223.925 379 230z"/>
<path style="fill:#8a9bc0; stroke:none;" d="M401 225L402 226L401 225z"/>
<path style="fill:#acb8d1; stroke:none;" d="M402 225L403 226L402 225z"/>
<path style="fill:#c5cdde; stroke:none;" d="M403 225L404 226L403 225z"/>
<path style="fill:#8a9bc0; stroke:none;" d="M416 225L417 226L416 225z"/>
<path style="fill:#c5cdde; stroke:none;" d="M45 226L46 227L45 226z"/>
<path style="fill:#acb8d1; stroke:none;" d="M373 226L374 227L373 226M385 226L386 227L385 226z"/>
<path style="fill:#8a9bc0; stroke:none;" d="M386 226L387 227L386 226z"/>
<path style="fill:#acb8d1; stroke:none;" d="M405 226L406 227L405 226M417 226L418 227L417 226z"/>
<path style="fill:#8a9bc0; stroke:none;" d="M83 227L83 230L84 230L83 227z"/>
<path style="fill:#c5cdde; stroke:none;" d="M372 227L373 228L372 227M382 227L383 228L382 227z"/>
<path style="fill:#8a9bc0; stroke:none;" d="M383 227L384 228L383 227M407 227L408 228L407 227z"/>
<path style="fill:#c5cdde; stroke:none;" d="M408 227L409 228L408 227M418 227L419 228L418 227M371 228L372 229L371 228z"/>
<path style="fill:#8a9bc0; stroke:none;" d="M381 228L382 229L381 228M409 228L410 229L409 228z"/>
<path style="fill:#c5cdde; stroke:none;" d="M419 228L420 229L419 228z"/>
<path style="fill:#8a9bc0; stroke:none;" d="M44.3333 229.667L44.6667 230.333L44.3333 229.667z"/>
<path style="fill:#c5cdde; stroke:none;" d="M370 229L371 230L370 229z"/>
<path style="fill:#acb8d1; stroke:none;" d="M379 229L380 230L379 229M411 229L412 230L411 229z"/>
<path style="fill:#c5cdde; stroke:none;" d="M420 229L421 230L420 229M369 230L370 231L369 230M377.333 230.667L377.667 231.333L377.333 230.667z"/>
<path style="fill:#8a9bc0; stroke:none;" d="M378.333 230.667L378.667 231.333L378.333 230.667z"/>
<path style="fill:#c5cdde; stroke:none;" d="M413.333 230.667L413.667 231.333L413.333 230.667M421 230L422 231L421 230M44 231L45 232L44 231M354 231L354 232L357 232L354 231z"/>
<path style="fill:#acb8d1; stroke:none;" d="M368 231L369 232L368 231M379.667 231.333L380.333 231.667L379.667 231.333z"/>
<path style="fill:#8a9bc0; stroke:none;" d="M381.667 231.333L382.333 231.667L381.667 231.333M408.667 231.333L409.333 231.667L408.667 231.333z"/>
<path style="fill:#acb8d1; stroke:none;" d="M410.667 231.333L411.333 231.667L410.667 231.333z"/>
<path style="fill:#8a9bc0; stroke:none;" d="M412 231L413 232L412 231z"/>
<path style="fill:#acb8d1; stroke:none;" d="M422 231L423 232L422 231z"/>
<path style="fill:#c5cdde; stroke:none;" d="M434 231L434 232L437 232L434 231M82.3333 232.667L82.6667 233.333L82.3333 232.667M353 232L354 233L353 232z"/>
<path style="fill:#8a9bc0; stroke:none;" d="M367 232L368 233L367 232z"/>
<path style="fill:#c5cdde; stroke:none;" d="M384 232L385 233L384 232z"/>
<path style="fill:#8a9bc0; stroke:none;" d="M385 232L386 233L385 232M405 232L406 233L405 232z"/>
<path style="fill:#c5cdde; stroke:none;" d="M406 232L407 233L406 232z"/>
<path style="fill:#8a9bc0; stroke:none;" d="M423 232L424 233L423 232z"/>
<path style="fill:#c5cdde; stroke:none;" d="M433 232L434 233L433 232M437 232L438 233L437 232z"/>
<path style="fill:#8a9bc0; stroke:none;" d="M352 233L352 236L353 236L352 233M358 233L359 234L358 233M387 233L388 234L387 233M403 233L404 234L403 233M432.333 233.667L432.667 234.333L432.333 233.667M438 233L438 236L439 236L438 233M43 234L43 237L44 237L43 234M82 234L82 239L83 239L82 234z"/>
<path style="fill:#acb8d1; stroke:none;" d="M358 234L359 235L358 234z"/>
<path style="fill:#c5cdde; stroke:none;" d="M366 234L367 235L366 234M388 234L389 235L388 234z"/>
<path style="fill:#8a9bc0; stroke:none;" d="M389 234L390 235L389 234z"/>
<path style="fill:#c5cdde; stroke:none;" d="M402 234L403 235L402 234z"/>
<path style="fill:#acb8d1; stroke:none;" d="M365 235L366 236L365 235z"/>
<path style="fill:#8a9bc0; stroke:none;" d="M390 235L391 236L390 235M400 235L401 236L400 235z"/>
<path style="fill:#acb8d1; stroke:none;" d="M425 235L426 236L425 235M360 236L361 237L360 236M391 236L392 237L391 236z"/>
<path style="fill:#8a9bc0; stroke:none;" d="M399 236L400 237L399 236M430 236L431 237L430 236z"/>
<path style="fill:#c5cdde; stroke:none;" d="M43.3333 237.667L43.6667 238.333L43.3333 237.667M330 237L330 251L331 251L330 237z"/>
<path style="fill:#acb8d1; stroke:none;" d="M353 237L354 238L353 237z"/>
<path style="fill:#c5cdde; stroke:none;" d="M362 237L363 238L362 237z"/>
<path style="fill:#acb8d1; stroke:none;" d="M363 237L364 238L363 237z"/>
<path style="fill:#c5cdde; stroke:none;" d="M364 237L365 238L364 237M378 237L378 238L381 238L378 237z"/>
<path style="fill:#8a9bc0; stroke:none;" d="M392 237L393 238L392 237M398 237L399 238L398 237z"/>
<path style="fill:#c5cdde; stroke:none;" d="M410 237L410 238L413 238L410 237z"/>
<path style="fill:#acb8d1; stroke:none;" d="M427 237L428 238L427 237z"/>
<path style="fill:#c5cdde; stroke:none;" d="M428 237L429 238L428 237M437 237L438 238L437 237M374 238L375 239L374 238z"/>
<path style="fill:#8a9bc0; stroke:none;" d="M375 238L376 239L375 238z"/>
<path style="fill:#3b5999; stroke:none;" d="M376 238.657C356.793 244.451 365.988 274.35 370.587 287C371.958 290.769 373.212 296.456 376.074 299.392C378.575 301.958 382.953 299.514 386 299.387C393.516 299.075 406.762 302.943 413.606 300.34C417.644 298.804 419.609 289.68 420.946 286C425.62 273.137 433.18 247.624 416.996 239.457C403.3 232.545 399.02 249.347 399 259C398.995 261.384 399.494 269.146 395.17 268.369C391.298 267.673 392.005 260.722 392 258C391.984 248.794 388.847 234.781 376 238.657z"/>
<path style="fill:#8a9bc0; stroke:none;" d="M382 238L383 239L382 238z"/>
<path style="fill:#acb8d1; stroke:none;" d="M383 238L384 239L383 238z"/>
<path style="fill:#8a9bc0; stroke:none;" d="M393 238L394 239L393 238M397 238L398 239L397 238z"/>
<path style="fill:#c5cdde; stroke:none;" d="M407 238L408 239L407 238z"/>
<path style="fill:#8a9bc0; stroke:none;" d="M408 238L409 239L408 238M415 238L416 239L415 238z"/>
<path style="fill:#c5cdde; stroke:none;" d="M416 238L417 239L416 238z"/>
<path style="fill:#8a9bc0; stroke:none;" d="M354 239L355 240L354 239M373 239L374 240L373 239z"/>
<path style="fill:#acb8d1; stroke:none;" d="M385 239L386 240L385 239z"/>
<path style="fill:#c5cdde; stroke:none;" d="M405 239L406 240L405 239z"/>
<path style="fill:#8a9bc0; stroke:none;" d="M417 239L418 240L417 239z"/>
<path style="fill:#c5cdde; stroke:none;" d="M418 239L419 240L418 239z"/>
<path style="fill:#8a9bc0; stroke:none;" d="M436 239L437 240L436 239z"/>
<path style="fill:#acb8d1; stroke:none;" d="M355 240L356 241L355 240M371 240L372 241L371 240z"/>
<path style="fill:#8a9bc0; stroke:none;" d="M386 240L387 241L386 240z"/>
<path style="fill:#c5cdde; stroke:none;" d="M394 240L395 241L394 240M396 240L397 241L396 240z"/>
<path style="fill:#8a9bc0; stroke:none;" d="M404 240L405 241L404 240z"/>
<path style="fill:#acb8d1; stroke:none;" d="M419 240L420 241L419 240M435 240L436 241L435 240z"/>
<path style="fill:#8a9bc0; stroke:none;" d="M42 241L42 246L43 246L42 241M356 241L357 242L356 241z"/>
<path style="fill:#acb8d1; stroke:none;" d="M370 241L371 242L370 241z"/>
<path style="fill:#c5cdde; stroke:none;" d="M395 241L396 242L395 241z"/>
<path style="fill:#8a9bc0; stroke:none;" d="M403 241L404 242L403 241M420 241L421 242L420 241M434 241L435 242L434 241z"/>
<path style="fill:#acb8d1; stroke:none;" d="M358 242L359 243L358 242M369 242L370 243L369 242z"/>
<path style="fill:#8a9bc0; stroke:none;" d="M402 242L403 243L402 242z"/>
<path style="fill:#acb8d1; stroke:none;" d="M421 242L422 243L421 242M432 242L433 243L432 242z"/>
<path style="fill:#c5cdde; stroke:none;" d="M81 243L81 261L82 261L81 243z"/>
<path style="fill:#8a9bc0; stroke:none;" d="M360 243L361 244L360 243z"/>
<path style="fill:#c5cdde; stroke:none;" d="M361.333 243.667L361.667 244.333L361.333 243.667M368 243L369 244L368 243z"/>
<path style="fill:#8a9bc0; stroke:none;" d="M389 243L390 244L389 243M401 243L402 244L401 243z"/>
<path style="fill:#c5cdde; stroke:none;" d="M422 243L423 244L422 243M429 243L430 244L429 243z"/>
<path style="fill:#8a9bc0; stroke:none;" d="M430 243L431 244L430 243M374 244L375 245L374 244z"/>
<path style="fill:#c5cdde; stroke:none;" d="M375 244L376 245L375 244z"/>
<path style="fill:#fefefe; stroke:none;" d="M376.001 244.693C362.237 248.352 366.451 272.365 380.999 268.562C394.216 265.108 389.932 240.989 376.001 244.693z"/>
<path style="fill:#c5cdde; stroke:none;" d="M380 244L381 245L380 244z"/>
<path style="fill:#acb8d1; stroke:none;" d="M381 244L382 245L381 244z"/>
<path style="fill:#8a9bc0; stroke:none;" d="M382 244L383 245L382 244z"/>
<path style="fill:#c5cdde; stroke:none;" d="M390 244L391 245L390 244M400 244L401 245L400 244z"/>
<path style="fill:#acb8d1; stroke:none;" d="M409 244L410 245L409 244z"/>
<path style="fill:#c5cdde; stroke:none;" d="M410 244L411 245L410 244z"/>
<path style="fill:#fefefe; stroke:none;" d="M411.001 244.576C396.986 247.187 400.21 271.833 414.996 268.602C428.548 265.641 424.973 241.974 411.001 244.576z"/>
<path style="fill:#c5cdde; stroke:none;" d="M415 244L416 245L415 244z"/>
<path style="fill:#8a9bc0; stroke:none;" d="M416 244L417 245L416 244M360 245L361 246L360 245M367 245L368 246L367 245M372 245L373 246L372 245z"/>
<path style="fill:#c5cdde; stroke:none;" d="M373 245L374 246L373 245M383 245L384 246L383 245M407 245L408 246L407 245M417 245L418 246L417 245z"/>
<path style="fill:#8a9bc0; stroke:none;" d="M418 245L419 246L418 245M423 245L424 246L423 245M430 245L431 246L430 245z"/>
<path style="fill:#c5cdde; stroke:none;" d="M42 246L42 250L43 250L42 246z"/>
<path style="fill:#acb8d1; stroke:none;" d="M360 246L361 247L360 246z"/>
<path style="fill:#c5cdde; stroke:none;" d="M366 246L367 247L366 246z"/>
<path style="fill:#8a9bc0; stroke:none;" d="M371 246L372 247L371 246M385 246L386 247L385 246z"/>
<path style="fill:#c5cdde; stroke:none;" d="M391 246L392 247L391 246M399 246L400 247L399 246z"/>
<path style="fill:#8a9bc0; stroke:none;" d="M405 246L406 247L405 246z"/>
<path style="fill:#acb8d1; stroke:none;" d="M419 246L420 247L419 246z"/>
<path style="fill:#c5cdde; stroke:none;" d="M424 246L425 247L424 246M430 246L431 247L430 246z"/>
<path style="fill:#8a9bc0; stroke:none;" d="M366 247L367 248L366 247M370 247L371 248L370 247M386 247L387 248L386 247M391 247L392 248L391 247M399 247L400 248L399 247M404 247L405 248L404 247z"/>
<path style="fill:#acb8d1; stroke:none;" d="M420 247L421 248L420 247z"/>
<path style="fill:#8a9bc0; stroke:none;" d="M369 248L370 249L369 248M421 248L422 249L421 248z"/>
<path style="fill:#c5cdde; stroke:none;" d="M425 248L426 249L425 248z"/>
<path style="fill:#8a9bc0; stroke:none;" d="M431.333 248.667L431.667 249.333L431.333 248.667M359 249L360 250L359 249z"/>
<path style="fill:#acb8d1; stroke:none;" d="M365 249L366 250L365 249z"/>
<path style="fill:#c5cdde; stroke:none;" d="M387 249L388 250L387 249M392 249L393 250L392 249M398 249L399 250L398 249M403 249L404 250L403 249z"/>
<path style="fill:#8a9bc0; stroke:none;" d="M425.333 249.667L425.667 250.333L425.333 249.667z"/>
<path style="fill:#acb8d1; stroke:none;" d="M359 250L360 251L359 250z"/>
<path style="fill:#8a9bc0; stroke:none;" d="M365 250L366 251L365 250z"/>
<path style="fill:#acb8d1; stroke:none;" d="M368 250L369 251L368 250z"/>
<path style="fill:#c5cdde; stroke:none;" d="M376 250L377 251L376 250z"/>
<path style="fill:#8a9bc0; stroke:none;" d="M377.667 250.333L378.333 250.667L377.667 250.333z"/>
<path style="fill:#acb8d1; stroke:none;" d="M379 250L380 251L379 250z"/>
<path style="fill:#c5cdde; stroke:none;" d="M380 250L381 251L380 250z"/>
<path style="fill:#8a9bc0; stroke:none;" d="M388 250L389 251L388 250z"/>
<path style="fill:#acb8d1; stroke:none;" d="M392 250L393 251L392 250M398 250L399 251L398 250z"/>
<path style="fill:#8a9bc0; stroke:none;" d="M402 250L403 251L402 250z"/>
<path style="fill:#c5cdde; stroke:none;" d="M410 250L411 251L410 250z"/>
<path style="fill:#acb8d1; stroke:none;" d="M411 250L412 251L411 250z"/>
<path style="fill:#8a9bc0; stroke:none;" d="M412.667 250.333L413.333 250.667L412.667 250.333z"/>
<path style="fill:#c5cdde; stroke:none;" d="M414 250L415 251L414 250M422 250L423 251L422 250M431 250L432 251L431 250z"/>
<path style="fill:#acb8d1; stroke:none;" d="M330 251L331 252L330 251z"/>
<path style="fill:#c5cdde; stroke:none;" d="M359 251L360 252L359 251z"/>
<path style="fill:#8a9bc0; stroke:none;" d="M375 251L374 253L375 251z"/>
<path style="fill:#3b5999; stroke:none;" d="M376.147 252.047C370.424 255.168 374.799 264.999 380.772 261.777C386.493 258.691 382.152 248.772 376.147 252.047z"/>
<path style="fill:#8a9bc0; stroke:none;" d="M381 251L382 252L381 251z"/>
<path style="fill:#c5cdde; stroke:none;" d="M388 251L389 252L388 251z"/>
<path style="fill:#8a9bc0; stroke:none;" d="M392 251L392 267L393 267L392 251M398 251L398 268L399 268L398 251z"/>
<path style="fill:#c5cdde; stroke:none;" d="M402 251L403 252L402 251z"/>
<path style="fill:#8a9bc0; stroke:none;" d="M409 251L408 253L409 251z"/>
<path style="fill:#3b5999; stroke:none;" d="M410.228 252.043C404.616 255.287 408.8 265.085 414.853 261.928C420.799 258.827 416.576 248.374 410.228 252.043z"/>
<path style="fill:#8a9bc0; stroke:none;" d="M415 251L416 252L415 251M330 252L330 288C330 291.316 328.649 298.632 331.603 300.972C335.582 304.124 347.103 302 352 302C356.901 302 366.593 303.899 370 300L331 301C331 287.212 335.309 264.652 330 252z"/>
<path style="fill:#c5cdde; stroke:none;" d="M364.333 252.667L364.667 253.333L364.333 252.667z"/>
<path style="fill:#8a9bc0; stroke:none;" d="M367 252L368 253L367 252M382 252L383 253L382 252M423 252L424 253L423 252z"/>
<path style="fill:#c5cdde; stroke:none;" d="M426 252L427 253L426 252M367.333 253.667L367.667 254.333L367.333 253.667z"/>
<path style="fill:#acb8d1; stroke:none;" d="M373 253L374 254L373 253z"/>
<path style="fill:#8a9bc0; stroke:none;" d="M377 253L377 254L381 255L381 254L377 253z"/>
<path style="fill:#c5cdde; stroke:none;" d="M383 253L384 254L383 253z"/>
<path style="fill:#8a9bc0; stroke:none;" d="M389 253L390 254L389 253M401 253L402 254L401 253z"/>
<path style="fill:#c5cdde; stroke:none;" d="M407 253L408 254L407 253z"/>
<path style="fill:#8a9bc0; stroke:none;" d="M412.667 253.333L413.333 253.667L412.667 253.333M417 253L418 254L417 253z"/>
<path style="fill:#c5cdde; stroke:none;" d="M423 253L424 254L423 253z"/>
<path style="fill:#acb8d1; stroke:none;" d="M426 253L427 254L426 253z"/>
<path style="fill:#8a9bc0; stroke:none;" d="M432 253L432 256L433 256L432 253M358 254L358 257L359 257L358 254z"/>
<path style="fill:#acb8d1; stroke:none;" d="M364 254L365 255L364 254M376 254L377 255L376 254z"/>
<path style="fill:#fefefe; stroke:none;" d="M377.563 255.16C375.488 256.469 377.409 259.951 379.397 258.188C380.936 256.821 379.538 253.915 377.563 255.16z"/>
<path style="fill:#8a9bc0; stroke:none;" d="M383 254L384 255L383 254z"/>
<path style="fill:#c5cdde; stroke:none;" d="M389 254L389 259L390 259L389 254z"/>
<path style="fill:#acb8d1; stroke:none;" d="M401 254L402 255L401 254z"/>
<path style="fill:#8a9bc0; stroke:none;" d="M407 254L408 255L407 254M410 254L411 255L410 254z"/>
<path style="fill:#fefefe; stroke:none;" d="M411.603 255.171C409.928 256.355 411.531 259.403 413.437 258.508C415.587 257.498 413.61 253.752 411.603 255.171z"/>
<path style="fill:#acb8d1; stroke:none;" d="M414 254L415 255L414 254z"/>
<path style="fill:#8a9bc0; stroke:none;" d="M426 254L426 257L427 257L426 254M364 255L364 258L365 258L364 255z"/>
<path style="fill:#c5cdde; stroke:none;" d="M372 255L372 258L373 258L372 255z"/>
<path style="fill:#8a9bc0; stroke:none;" d="M375 255L376 256L375 255z"/>
<path style="fill:#c5cdde; stroke:none;" d="M401 255L401 259L402 259L401 255z"/>
<path style="fill:#8a9bc0; stroke:none;" d="M415 255L416 256L415 255z"/>
<path style="fill:#c5cdde; stroke:none;" d="M418 255L419 256L418 255z"/>
<path style="fill:#acb8d1; stroke:none;" d="M375 256L376 257L375 256z"/>
<path style="fill:#8a9bc0; stroke:none;" d="M381.333 256.667L381.667 257.333L381.333 256.667z"/>
<path style="fill:#c5cdde; stroke:none;" d="M384 256L385 257L384 256z"/>
<path style="fill:#8a9bc0; stroke:none;" d="M409 256L410 257L409 256z"/>
<path style="fill:#acb8d1; stroke:none;" d="M415.333 256.667L415.667 257.333L415.333 256.667M418.333 256.667L418.667 257.333L418.333 256.667M432 256L432 259L433 259L432 256M358 257L358 263L359 263L358 257z"/>
<path style="fill:#8a9bc0; stroke:none;" d="M375 257L376 258L375 257z"/>
<path style="fill:#c5cdde; stroke:none;" d="M380 258L381 259L380 258M410 258L411 259L410 258M418 258L419 259L418 258M367 259L368 260L367 259z"/>
<path style="fill:#8a9bc0; stroke:none;" d="M373 259L374 260L373 259z"/>
<path style="fill:#c5cdde; stroke:none;" d="M377 259L378 260L377 259M379 259L380 260L379 259z"/>
<path style="fill:#8a9bc0; stroke:none;" d="M383 259L384 260L383 259z"/>
<path style="fill:#acb8d1; stroke:none;" d="M389 259L390 260L389 259M401 259L402 260L401 259M407 259L408 260L407 259z"/>
<path style="fill:#c5cdde; stroke:none;" d="M411 259L412 260L411 259M413 259L414 260L413 259z"/>
<path style="fill:#8a9bc0; stroke:none;" d="M414 259L415 260L414 259z"/>
<path style="fill:#c5cdde; stroke:none;" d="M423 259L424 260L423 259M432.333 259.667L432.667 260.333L432.333 259.667z"/>
<path style="fill:#acb8d1; stroke:none;" d="M367 260L368 261L367 260z"/>
<path style="fill:#c5cdde; stroke:none;" d="M373 260L374 261L373 260z"/>
<path style="fill:#8a9bc0; stroke:none;" d="M389 260L390 261L389 260M401 260L402 261L401 260z"/>
<path style="fill:#c5cdde; stroke:none;" d="M417 260L418 261L417 260z"/>
<path style="fill:#acb8d1; stroke:none;" d="M423 260L424 261L423 260z"/>
<path style="fill:#8a9bc0; stroke:none;" d="M367 261L368 262L367 261z"/>
<path style="fill:#acb8d1; stroke:none;" d="M374 261L375 262L374 261z"/>
<path style="fill:#c5cdde; stroke:none;" d="M382 261L383 262L382 261M408 261L409 262L408 261z"/>
<path style="fill:#acb8d1; stroke:none;" d="M416 261L417 262L416 261z"/>
<path style="fill:#8a9bc0; stroke:none;" d="M423 261L424 262L423 261z"/>
<path style="fill:#acb8d1; stroke:none;" d="M432 261L432 264L433 264L432 261z"/>
<path style="fill:#8a9bc0; stroke:none;" d="M364 262L364 265L365 265L364 262z"/>
<path style="fill:#c5cdde; stroke:none;" d="M368 262L369 263L368 262M375 262L376 263L375 262z"/>
<path style="fill:#8a9bc0; stroke:none;" d="M376 262L377 263L376 262M380 262L381 263L380 262z"/>
<path style="fill:#c5cdde; stroke:none;" d="M381 262L382 263L381 262z"/>
<path style="fill:#acb8d1; stroke:none;" d="M388 262L389 263L388 262M402 262L403 263L402 262z"/>
<path style="fill:#8a9bc0; stroke:none;" d="M410 262L411 263L410 262z"/>
<path style="fill:#c5cdde; stroke:none;" d="M415 262L416 263L415 262z"/>
<path style="fill:#8a9bc0; stroke:none;" d="M358 263L358 266L359 266L358 263M368 263L369 264L368 263z"/>
<path style="fill:#c5cdde; stroke:none;" d="M377.667 263.333L378.333 263.667L377.667 263.333M412.667 263.333L413.333 263.667L412.667 263.333z"/>
<path style="fill:#8a9bc0; stroke:none;" d="M422 263L423 264L422 263M426.333 263.667L426.667 264.333L426.333 263.667z"/>
<path style="fill:#c5cdde; stroke:none;" d="M369 264L370 265L369 264z"/>
<path style="fill:#acb8d1; stroke:none;" d="M387 264L388 265L387 264z"/>
<path style="fill:#8a9bc0; stroke:none;" d="M403 264L404 265L403 264z"/>
<path style="fill:#c5cdde; stroke:none;" d="M421 264L422 265L421 264z"/>
<path style="fill:#8a9bc0; stroke:none;" d="M432.333 264.667L432.667 265.333L432.333 264.667z"/>
<path style="fill:#c5cdde; stroke:none;" d="M42 265L42 269L43 269L42 265z"/>
<path style="fill:#8a9bc0; stroke:none;" d="M82 265L82 269L83 269L82 265z"/>
<path style="fill:#acb8d1; stroke:none;" d="M364 265L365 266L364 265z"/>
<path style="fill:#c5cdde; stroke:none;" d="M386 265L387 266L386 265M404 265L405 266L404 265z"/>
<path style="fill:#acb8d1; stroke:none;" d="M426 265L427 266L426 265z"/>
<path style="fill:#c5cdde; stroke:none;" d="M364 266L365 267L364 266M385 266L386 267L385 266M405 266L406 267L405 266M426.333 266.667L426.667 267.333L426.333 266.667M372 267L373 268L372 267z"/>
<path style="fill:#acb8d1; stroke:none;" d="M384 267L385 268L384 267M406 267L407 268L406 267z"/>
<path style="fill:#c5cdde; stroke:none;" d="M418 267L419 268L418 267M359 268L360 269L359 268z"/>
<path style="fill:#8a9bc0; stroke:none;" d="M373 268L374 269L373 268z"/>
<path style="fill:#c5cdde; stroke:none;" d="M374 268L375 269L374 268M382 268L383 269L382 268z"/>
<path style="fill:#8a9bc0; stroke:none;" d="M383 268L384 269L383 268z"/>
<path style="fill:#acb8d1; stroke:none;" d="M393 268L394 269L393 268z"/>
<path style="fill:#c5cdde; stroke:none;" d="M397 268L398 269L397 268z"/>
<path style="fill:#8a9bc0; stroke:none;" d="M407 268L408 269L407 268z"/>
<path style="fill:#c5cdde; stroke:none;" d="M408 268L409 269L408 268M416 268L417 269L416 268z"/>
<path style="fill:#8a9bc0; stroke:none;" d="M417 268L418 269L417 268z"/>
<path style="fill:#c5cdde; stroke:none;" d="M431.333 268.667L431.667 269.333L431.333 268.667z"/>
<path style="fill:#8a9bc0; stroke:none;" d="M42 269L42 274L43 274L42 269z"/>
<path style="fill:#acb8d1; stroke:none;" d="M82 269L83 270L82 269M359 269L360 270L359 269z"/>
<path style="fill:#8a9bc0; stroke:none;" d="M365 269L366 270L365 269M375.667 269.333L376.333 269.667L375.667 269.333z"/>
<path style="fill:#acb8d1; stroke:none;" d="M377 269L377 270L380 270L377 269z"/>
<path style="fill:#8a9bc0; stroke:none;" d="M380 269L381 270L380 269M394 269L395 270L394 269z"/>
<path style="fill:#acb8d1; stroke:none;" d="M395 269L396 270L395 269z"/>
<path style="fill:#8a9bc0; stroke:none;" d="M396 269L397 270L396 269M410 269L411 270L410 269z"/>
<path style="fill:#acb8d1; stroke:none;" d="M411 269L411 270L414 270L411 269z"/>
<path style="fill:#8a9bc0; stroke:none;" d="M414.667 269.333L415.333 269.667L414.667 269.333M425.333 269.667L425.667 270.333L425.333 269.667z"/>
<path style="fill:#c5cdde; stroke:none;" d="M82.3333 270.667L82.6667 271.333L82.3333 270.667z"/>
<path style="fill:#8a9bc0; stroke:none;" d="M359 270L360 271L359 270z"/>
<path style="fill:#acb8d1; stroke:none;" d="M365 270L366 271L365 270z"/>
<path style="fill:#8a9bc0; stroke:none;" d="M431.333 270.667L431.667 271.333L431.333 270.667z"/>
<path style="fill:#c5cdde; stroke:none;" d="M365 271L366 272L365 271M425 271L426 272L425 271M360 273L361 274L360 273z"/>
<path style="fill:#8a9bc0; stroke:none;" d="M366.333 273.667L366.667 274.333L366.333 273.667z"/>
<path style="fill:#c5cdde; stroke:none;" d="M430 273L431 274L430 273z"/>
<path style="fill:#8a9bc0; stroke:none;" d="M83.3333 274.667L83.6667 275.333L83.3333 274.667M360.333 274.667L360.667 275.333L360.333 274.667M424 274L425 275L424 274z"/>
<path style="fill:#acb8d1; stroke:none;" d="M430 274L431 275L430 274z"/>
<path style="fill:#c5cdde; stroke:none;" d="M366 275L367 276L366 275M424 275L425 276L424 275z"/>
<path style="fill:#8a9bc0; stroke:none;" d="M430 275L431 276L430 275z"/>
<path style="fill:#c5cdde; stroke:none;" d="M43.3333 276.667L43.6667 277.333L43.3333 276.667z"/>
<path style="fill:#acb8d1; stroke:none;" d="M83 276L84 277L83 276z"/>
<path style="fill:#c5cdde; stroke:none;" d="M83 277L84 278L83 277M361 277L362 278L361 277z"/>
<path style="fill:#8a9bc0; stroke:none;" d="M367 277L368 278L367 277M423 277L424 278L423 277z"/>
<path style="fill:#c5cdde; stroke:none;" d="M429 277L430 278L429 277z"/>
<path style="fill:#8a9bc0; stroke:none;" d="M43 278L43 281L44 281L43 278M361 278L362 279L361 278z"/>
<path style="fill:#acb8d1; stroke:none;" d="M367 278L368 279L367 278M423 278L424 279L423 278M429 278L430 279L429 278z"/>
<path style="fill:#c5cdde; stroke:none;" d="M423 279L424 280L423 279z"/>
<path style="fill:#8a9bc0; stroke:none;" d="M429 279L430 280L429 279M84.3333 280.667L84.6667 281.333L84.3333 280.667z"/>
<path style="fill:#c5cdde; stroke:none;" d="M362 280L363 281L362 280z"/>
<path style="fill:#8a9bc0; stroke:none;" d="M368 280L369 281L368 280z"/>
<path style="fill:#acb8d1; stroke:none;" d="M362 281L363 282L362 281M368 281L369 282L368 281z"/>
<path style="fill:#8a9bc0; stroke:none;" d="M422 281L423 282L422 281z"/>
<path style="fill:#acb8d1; stroke:none;" d="M428 281L429 282L428 281z"/>
<path style="fill:#c5cdde; stroke:none;" d="M44.3333 282.667L44.6667 283.333L44.3333 282.667M84 282L85 283L84 282z"/>
<path style="fill:#8a9bc0; stroke:none;" d="M362 282L363 283L362 282z"/>
<path style="fill:#c5cdde; stroke:none;" d="M422 282L423 283L422 282z"/>
<path style="fill:#8a9bc0; stroke:none;" d="M428 282L429 283L428 282M44.3333 284.667L44.6667 285.333L44.3333 284.667z"/>
<path style="fill:#acb8d1; stroke:none;" d="M363 284L364 285L363 284M369 284L370 285L369 284z"/>
<path style="fill:#8a9bc0; stroke:none;" d="M421 284L422 285L421 284z"/>
<path style="fill:#c5cdde; stroke:none;" d="M427 284L428 285L427 284z"/>
<path style="fill:#8a9bc0; stroke:none;" d="M85 285L86 286L85 285M363 285L364 286L363 285z"/>
<path style="fill:#c5cdde; stroke:none;" d="M421 285L422 286L421 285z"/>
<path style="fill:#8a9bc0; stroke:none;" d="M427 285L428 286L427 285z"/>
<path style="fill:#acb8d1; stroke:none;" d="M85 286L86 287L85 286z"/>
<path style="fill:#8a9bc0; stroke:none;" d="M370 286L371 287L370 286z"/>
<path style="fill:#c5cdde; stroke:none;" d="M45 287L46 288L45 287M85 287L86 288L85 287z"/>
<path style="fill:#acb8d1; stroke:none;" d="M364 287L365 288L364 287M370 287L371 288L370 287M420 287L421 288L420 287M426 287L427 288L426 287M45 288L46 289L45 288z"/>
<path style="fill:#8a9bc0; stroke:none;" d="M426 288L427 289L426 288M45 289L46 290L45 289M86 289L87 290L86 289z"/>
<path style="fill:#c5cdde; stroke:none;" d="M365 289L366 290L365 289z"/>
<path style="fill:#8a9bc0; stroke:none;" d="M371 289L372 290L371 289M419 289L420 290L419 289z"/>
<path style="fill:#c5cdde; stroke:none;" d="M86 290L87 291L86 290z"/>
<path style="fill:#8a9bc0; stroke:none;" d="M365 290L366 291L365 290z"/>
<path style="fill:#c5cdde; stroke:none;" d="M371 290L372 291L371 290M419 290L420 291L419 290z"/>
<path style="fill:#acb8d1; stroke:none;" d="M425 290L426 291L425 290z"/>
<path style="fill:#c5cdde; stroke:none;" d="M46 291L47 292L46 291z"/>
<path style="fill:#acb8d1; stroke:none;" d="M46 292L47 293L46 292z"/>
<path style="fill:#8a9bc0; stroke:none;" d="M87 292L88 293L87 292z"/>
<path style="fill:#c5cdde; stroke:none;" d="M366 292L367 293L366 292z"/>
<path style="fill:#acb8d1; stroke:none;" d="M372 292L373 293L372 292z"/>
<path style="fill:#8a9bc0; stroke:none;" d="M418 292L419 293L418 292z"/>
<path style="fill:#c5cdde; stroke:none;" d="M424 292L425 293L424 292z"/>
<path style="fill:#8a9bc0; stroke:none;" d="M46 293L47 294L46 293z"/>
<path style="fill:#acb8d1; stroke:none;" d="M87 293L88 294L87 293z"/>
<path style="fill:#8a9bc0; stroke:none;" d="M366 293L367 294L366 293M424 293L425 294L424 293M373 294L374 295L373 294M417 294L418 295L417 294z"/>
<path style="fill:#c5cdde; stroke:none;" d="M47 295L48 296L47 295z"/>
<path style="fill:#8a9bc0; stroke:none;" d="M88 295L89 296L88 295M297 295L297 317L298 317L297 295z"/>
<path style="fill:#acb8d1; stroke:none;" d="M367 295L368 296L367 295z"/>
<path style="fill:#c5cdde; stroke:none;" d="M373 295L374 296L373 295M417 295L418 296L417 295z"/>
<path style="fill:#acb8d1; stroke:none;" d="M423 295L424 296L423 295z"/>
<path style="fill:#8a9bc0; stroke:none;" d="M459 295L460 296L459 295z"/>
<path style="fill:#acb8d1; stroke:none;" d="M460 295L461 296L460 295z"/>
<path style="fill:#c5cdde; stroke:none;" d="M461 295L462 296L461 295z"/>
<path style="fill:#8a9bc0; stroke:none;" d="M462 295L463 296L462 295M47 296L48 297L47 296z"/>
<path style="fill:#acb8d1; stroke:none;" d="M88 296L89 297L88 296z"/>
<path style="fill:#8a9bc0; stroke:none;" d="M374 296L375 297L374 296z"/>
<path style="fill:#acb8d1; stroke:none;" d="M458 296L459 297L458 296z"/>
<path style="fill:#8a9bc0; stroke:none;" d="M464 296L465 297L464 296z"/>
<path style="fill:#c5cdde; stroke:none;" d="M368 297L369 298L368 297M374 297L375 298L374 297z"/>
<path style="fill:#acb8d1; stroke:none;" d="M416 297L417 298L416 297z"/>
<path style="fill:#c5cdde; stroke:none;" d="M422 297L423 298L422 297z"/>
<path style="fill:#acb8d1; stroke:none;" d="M457 297L458 298L457 297z"/>
<path style="fill:#c5cdde; stroke:none;" d="M464 297L465 298L464 297M48 298L49 299L48 298z"/>
<path style="fill:#8a9bc0; stroke:none;" d="M89 298L90 299L89 298M368 298L369 299L368 298M383.667 298.333L384.333 298.667L383.667 298.333M389.667 298.333L390.333 298.667L389.667 298.333M400.667 298.333L401.333 298.667L400.667 298.333M406.667 298.333L407.333 298.667L406.667 298.333M422 298L423 299L422 298M456 298L457 299L456 298M48 299L49 300L48 299z"/>
<path style="fill:#c5cdde; stroke:none;" d="M89 299L90 300L89 299M369 299L370 300L369 299z"/>
<path style="fill:#acb8d1; stroke:none;" d="M375 299L376 300L375 299z"/>
<path style="fill:#c5cdde; stroke:none;" d="M382 299L383 300L382 299M391 299L392 300L391 299M399 299L400 300L399 299z"/>
<path style="fill:#acb8d1; stroke:none;" d="M415 299L416 300L415 299z"/>
<path style="fill:#c5cdde; stroke:none;" d="M456 299L457 300L456 299z"/>
<path style="fill:#8a9bc0; stroke:none;" d="M465 299L465 303L466 303L465 299M381 300L377 301L377 302L382 301L381 300z"/>
<path style="fill:#c5cdde; stroke:none;" d="M386.667 300.333L387.333 300.667L386.667 300.333z"/>
<path style="fill:#8a9bc0; stroke:none;" d="M392 300L392 301L399 301L399 300L392 300z"/>
<path style="fill:#c5cdde; stroke:none;" d="M403 300L404 301L403 300z"/>
<path style="fill:#acb8d1; stroke:none;" d="M404 300L405 301L404 300M409 300L410 301L409 300z"/>
<path style="fill:#8a9bc0; stroke:none;" d="M421 300C425.496 305.145 449.589 302.895 456 301L456 300C445.862 302.414 431.138 302.414 421 300z"/>
<path style="fill:#c5cdde; stroke:none;" d="M49 301L50 302L49 301z"/>
<path style="fill:#8a9bc0; stroke:none;" d="M90 301L91 302L90 301z"/>
<path style="fill:#acb8d1; stroke:none;" d="M330 301L331 302L330 301M376 301L377 302L376 301z"/>
<path style="fill:#c5cdde; stroke:none;" d="M381 301L382 302L381 301M392 301L393 302L392 301M398 301L399 302L398 301z"/>
<path style="fill:#8a9bc0; stroke:none;" d="M410 301L410 302L414 302L410 301z"/>
<path style="fill:#acb8d1; stroke:none;" d="M414 301L415 302L414 301z"/>
<path style="fill:#c5cdde; stroke:none;" d="M455 301L456 302L455 301z"/>
<path style="fill:#8a9bc0; stroke:none;" d="M49 302L50 303L49 302z"/>
<path style="fill:#c5cdde; stroke:none;" d="M90 302L91 303L90 302M50 303L51 304L50 303z"/>
<path style="fill:#8a9bc0; stroke:none;" d="M91 303L92 304L91 303M50 304L51 305L50 304z"/>
<path style="fill:#c5cdde; stroke:none;" d="M91 304L92 305L91 304z"/>
<path style="fill:#8a9bc0; stroke:none;" d="M92 305L93 306L92 305z"/>
<path style="fill:#c5cdde; stroke:none;" d="M464.333 305.667L464.667 306.333L464.333 305.667M51 306L52 307L51 306z"/>
<path style="fill:#acb8d1; stroke:none;" d="M92 306L93 307L92 306z"/>
<path style="fill:#8a9bc0; stroke:none;" d="M51 307L52 308L51 307M93 307L94 308L93 307M241.667 307.333L242.333 307.667L241.667 307.333z"/>
<path style="fill:#acb8d1; stroke:none;" d="M464 307L465 308L464 307z"/>
<path style="fill:#c5cdde; stroke:none;" d="M52 308L53 309L52 308z"/>
<path style="fill:#acb8d1; stroke:none;" d="M93 308L94 309L93 308M239 308L240 309L239 308M244 308L245 309L244 308M330 308L331 309L330 308z"/>
<path style="fill:#3b5999; stroke:none;" d="M331 308C331 321.9 327.736 341.924 338.465 352.671C346.25 360.469 359.984 358 370 358C399.2 358 419.147 349.828 438.41 327C443.249 321.265 448.69 315.248 451 308C442.919 308 425.256 304.65 418.39 309.028C409.716 314.559 408.84 332.467 396 333.392C383.024 334.326 380.969 314.336 372.61 309.028C369.361 306.965 363.679 308 360 308L331 308z"/>
<path style="fill:#acb8d1; stroke:none;" d="M373 308L374 309L373 308z"/>
<path style="fill:#8a9bc0; stroke:none;" d="M380.333 308.667L380.667 309.333L380.333 308.667z"/>
<path style="fill:#3b5999; stroke:none;" d="M381 308C382.484 314.472 386.996 321.951 393 325C390.546 314.285 398.899 313.827 399 325L411 308L381 308z"/>
<path style="fill:#c5cdde; stroke:none;" d="M417 308L418 309L417 308z"/>
<path style="fill:#8a9bc0; stroke:none;" d="M451 308L452 309L451 308M464 308L464 311L465 311L464 308M52 309L53 310L52 309M94 309L95 310L94 309z"/>
<path style="fill:#acb8d1; stroke:none;" d="M238 309L239 310L238 309M245 309L246 310L245 309z"/>
<path style="fill:#8a9bc0; stroke:none;" d="M330 309L330 315L331 315L330 309M410 309L411 310L410 309z"/>
<path style="fill:#c5cdde; stroke:none;" d="M451 309L452 310L451 309M53 310L54 311L53 310z"/>
<path style="fill:#acb8d1; stroke:none;" d="M94 310L95 311L94 310M237 310L238 311L237 310z"/>
<path style="fill:#8a9bc0; stroke:none;" d="M246 310L247 311L246 310z"/>
<path style="fill:#acb8d1; stroke:none;" d="M374 310L375 311L374 310M416 310L417 311L416 310z"/>
<path style="fill:#8a9bc0; stroke:none;" d="M450 310L451 311L450 310M53 311L54 312L53 311M95 311L96 312L95 311M236 311L237 312L236 311z"/>
<path style="fill:#acb8d1; stroke:none;" d="M246 311L247 312L246 311z"/>
<path style="fill:#c5cdde; stroke:none;" d="M381 311L382 312L381 311z"/>
<path style="fill:#acb8d1; stroke:none;" d="M409 311L410 312L409 311z"/>
<path style="fill:#c5cdde; stroke:none;" d="M450 311L451 312L450 311M54 312L55 313L54 312M95 312L96 313L95 312M236 312L237 313L236 312M246.333 312.667L246.667 313.333L246.333 312.667z"/>
<path style="fill:#8a9bc0; stroke:none;" d="M375 312L376 313L375 312M382 312L383 313L382 312z"/>
<path style="fill:#acb8d1; stroke:none;" d="M415 312L416 313L415 312M449 312L450 313L449 312z"/>
<path style="fill:#8a9bc0; stroke:none;" d="M54 313L55 314L54 313M96 313L97 314L96 313M235 313L236 314L235 313z"/>
<path style="fill:#c5cdde; stroke:none;" d="M382 313L383 314L382 313M408 313L409 314L408 313z"/>
<path style="fill:#8a9bc0; stroke:none;" d="M448 313L449 314L448 313z"/>
<path style="fill:#c5cdde; stroke:none;" d="M463.333 313.667L463.667 314.333L463.333 313.667M55 314L56 315L55 314M96 314L97 315L96 314M235 314L236 315L235 314z"/>
<path style="fill:#acb8d1; stroke:none;" d="M246 314L247 315L246 314z"/>
<path style="fill:#8a9bc0; stroke:none;" d="M376 314L377 315L376 314M383 314L384 315L383 314M394 314L394 315L397 315L394 314M407 314L408 315L407 314M414 314L415 315L414 314z"/>
<path style="fill:#c5cdde; stroke:none;" d="M448 314L449 315L448 314z"/>
<path style="fill:#8a9bc0; stroke:none;" d="M55 315L56 316L55 315z"/>
<path style="fill:#acb8d1; stroke:none;" d="M97 315L98 316L97 315M234 315L235 316L234 315z"/>
<path style="fill:#8a9bc0; stroke:none;" d="M246 315L247 316L246 315z"/>
<path style="fill:#c5cdde; stroke:none;" d="M330 315L330 330L331 330L330 315M377 315L378 316L377 315z"/>
<path style="fill:#8a9bc0; stroke:none;" d="M393 315L394 316L393 315M397 315L398 316L397 315z"/>
<path style="fill:#c5cdde; stroke:none;" d="M413 315L414 316L413 315z"/>
<path style="fill:#acb8d1; stroke:none;" d="M447 315L448 316L447 315z"/>
<path style="fill:#8a9bc0; stroke:none;" d="M463 315L463 318L464 318L463 315z"/>
<path style="fill:#c5cdde; stroke:none;" d="M56 316L57 317L56 316z"/>
<path style="fill:#8a9bc0; stroke:none;" d="M98 316L99 317L98 316z"/>
<path style="fill:#c5cdde; stroke:none;" d="M245 316L246 317L245 316M384 316L385 317L384 316M406 316L407 317L406 316z"/>
<path style="fill:#8a9bc0; stroke:none;" d="M413 316L414 317L413 316M446 316L447 317L446 316M56 317L57 318L56 317z"/>
<path style="fill:#acb8d1; stroke:none;" d="M98 317L99 318L98 317M233 317L234 318L233 317z"/>
<path style="fill:#8a9bc0; stroke:none;" d="M245 317L246 318L245 317z"/>
<path style="fill:#c5cdde; stroke:none;" d="M297 317L297 323L298 323L297 317z"/>
<path style="fill:#acb8d1; stroke:none;" d="M378 317L379 318L378 317z"/>
<path style="fill:#8a9bc0; stroke:none;" d="M385 317L386 318L385 317M392 317L392 324L393 324L392 317M398 317L398 326L399 326L398 317M405 317L406 318L405 317z"/>
<path style="fill:#c5cdde; stroke:none;" d="M412 317L413 318L412 317M446 317L447 318L446 317z"/>
<path style="fill:#acb8d1; stroke:none;" d="M57 318L58 319L57 318z"/>
<path style="fill:#8a9bc0; stroke:none;" d="M99 318L100 319L99 318M232 318L233 319L232 318z"/>
<path style="fill:#c5cdde; stroke:none;" d="M244 318L245 319L244 318z"/>
<path style="fill:#acb8d1; stroke:none;" d="M445 318L446 319L445 318z"/>
<path style="fill:#c5cdde; stroke:none;" d="M232 319L233 320L232 319z"/>
<path style="fill:#8a9bc0; stroke:none;" d="M244 319L245 320L244 319M379 319L380 320L379 319z"/>
<path style="fill:#c5cdde; stroke:none;" d="M386 319L387 320L386 319M404 319L405 320L404 319z"/>
<path style="fill:#8a9bc0; stroke:none;" d="M411 319L412 320L411 319z"/>
<path style="fill:#acb8d1; stroke:none;" d="M444 319L445 320L444 319z"/>
<path style="fill:#8a9bc0; stroke:none;" d="M58 320L59 321L58 320z"/>
<path style="fill:#acb8d1; stroke:none;" d="M100 320L101 321L100 320M231 320L232 321L231 320z"/>
<path style="fill:#c5cdde; stroke:none;" d="M243 320L244 321L243 320M380 320L381 321L380 320z"/>
<path style="fill:#acb8d1; stroke:none;" d="M387 320L388 321L387 320z"/>
<path style="fill:#8a9bc0; stroke:none;" d="M403 320L404 321L403 320z"/>
<path style="fill:#c5cdde; stroke:none;" d="M410 320L411 321L410 320z"/>
<path style="fill:#8a9bc0; stroke:none;" d="M443 320L444 321L443 320z"/>
<path style="fill:#c5cdde; stroke:none;" d="M462 320L463 321L462 320M59 321L60 322L59 321z"/>
<path style="fill:#acb8d1; stroke:none;" d="M101 321L102 322L101 321z"/>
<path style="fill:#8a9bc0; stroke:none;" d="M230 321L231 322L230 321M243 321L244 322L243 321M388 321L389 322L388 321M402 321L403 322L402 321z"/>
<path style="fill:#c5cdde; stroke:none;" d="M443 321L444 322L443 321z"/>
<path style="fill:#acb8d1; stroke:none;" d="M462 321L463 322L462 321z"/>
<path style="fill:#8a9bc0; stroke:none;" d="M59 322L60 323L59 322M102 322L103 323L102 322z"/>
<path style="fill:#c5cdde; stroke:none;" d="M230 322L231 323L230 322z"/>
<path style="fill:#acb8d1; stroke:none;" d="M242 322L243 323L242 322z"/>
<path style="fill:#8a9bc0; stroke:none;" d="M381 322L382 323L381 322M409 322L410 323L409 322z"/>
<path style="fill:#acb8d1; stroke:none;" d="M442 322L443 323L442 322z"/>
<path style="fill:#8a9bc0; stroke:none;" d="M462.333 322.667L462.667 323.333L462.333 322.667z"/>
<path style="fill:#acb8d1; stroke:none;" d="M60 323L61 324L60 323z"/>
<path style="fill:#c5cdde; stroke:none;" d="M102 323L103 324L102 323z"/>
<path style="fill:#acb8d1; stroke:none;" d="M229 323L230 324L229 323M382 323L383 324L382 323z"/>
<path style="fill:#c5cdde; stroke:none;" d="M401 323L402 324L401 323M408 323L409 324L408 323z"/>
<path style="fill:#acb8d1; stroke:none;" d="M441 323L442 324L441 323z"/>
<path style="fill:#c5cdde; stroke:none;" d="M61 324L62 325L61 324z"/>
<path style="fill:#acb8d1; stroke:none;" d="M103 324L104 325L103 324z"/>
<path style="fill:#8a9bc0; stroke:none;" d="M228 324L229 325L228 324z"/>
<path style="fill:#acb8d1; stroke:none;" d="M241 324L242 325L241 324z"/>
<path style="fill:#c5cdde; stroke:none;" d="M383 324L384 325L383 324M390 324L391 325L390 324M400 324L401 325L400 324z"/>
<path style="fill:#8a9bc0; stroke:none;" d="M440 324L441 325L440 324M61 325L62 326L61 325z"/>
<path style="fill:#acb8d1; stroke:none;" d="M104 325L105 326L104 325z"/>
<path style="fill:#c5cdde; stroke:none;" d="M228 325L229 326L228 325z"/>
<path style="fill:#acb8d1; stroke:none;" d="M240 325L241 326L240 325z"/>
<path style="fill:#c5cdde; stroke:none;" d="M391 325L392 326L391 325z"/>
<path style="fill:#8a9bc0; stroke:none;" d="M392 325L393 326L392 325z"/>
<path style="fill:#c5cdde; stroke:none;" d="M399 325L400 326L399 325z"/>
<path style="fill:#8a9bc0; stroke:none;" d="M407 325L408 326L407 325M439 325L438 327L439 325z"/>
<path style="fill:#acb8d1; stroke:none;" d="M62 326L63 327L62 326z"/>
<path style="fill:#8a9bc0; stroke:none;" d="M105 326L107 328L105 326z"/>
<path style="fill:#acb8d1; stroke:none;" d="M227 326L228 327L227 326z"/>
<path style="fill:#8a9bc0; stroke:none;" d="M384 326L385 327L384 326M406 326L407 327L406 326z"/>
<path style="fill:#c5cdde; stroke:none;" d="M439 326L440 327L439 326M461 326L462 327L461 326z"/>
<path style="fill:#acb8d1; stroke:none;" d="M63 327L64 328L63 327z"/>
<path style="fill:#c5cdde; stroke:none;" d="M105 327L106 328L105 327z"/>
<path style="fill:#acb8d1; stroke:none;" d="M226 327L227 328L226 327z"/>
<path style="fill:#8a9bc0; stroke:none;" d="M239 327L240 328L239 327M296 327L296 332L297 332L296 327M385 327L386 328L385 327z"/>
<path style="fill:#acb8d1; stroke:none;" d="M405 327L406 328L405 327M438 327L439 328L438 327M461 327L462 328L461 327z"/>
<path style="fill:#c5cdde; stroke:none;" d="M64 328L65 329L64 328z"/>
<path style="fill:#acb8d1; stroke:none;" d="M106 328L107 329L106 328z"/>
<path style="fill:#8a9bc0; stroke:none;" d="M225 328L226 329L225 328z"/>
<path style="fill:#acb8d1; stroke:none;" d="M238 328L239 329L238 328M386 328L387 329L386 328M404 328L405 329L404 328M437 328L438 329L437 328z"/>
<path style="fill:#8a9bc0; stroke:none;" d="M461.333 328.667L461.667 329.333L461.333 328.667M64 329L65 330L64 329z"/>
<path style="fill:#acb8d1; stroke:none;" d="M107 329L108 330L107 329z"/>
<path style="fill:#8a9bc0; stroke:none;" d="M224 329L225 330L224 329z"/>
<path style="fill:#c5cdde; stroke:none;" d="M237 329L238 330L237 329z"/>
<path style="fill:#acb8d1; stroke:none;" d="M387 329L388 330L387 329M403 329L404 330L403 329M436 329L437 330L436 329M65 330L66 331L65 330M108 330L109 331L108 330M224 330L225 331L224 330z"/>
<path style="fill:#8a9bc0; stroke:none;" d="M237 330L238 331L237 330M388 330L389 331L388 330z"/>
<path style="fill:#acb8d1; stroke:none;" d="M402 330L403 331L402 330M435 330L436 331L435 330M66 331L67 332L66 331M109 331L110 332L109 331M223 331L224 332L223 331M236 331L237 332L236 331z"/>
<path style="fill:#8a9bc0; stroke:none;" d="M389 331L390 332L389 331M401 331L402 332L401 331z"/>
<path style="fill:#acb8d1; stroke:none;" d="M434 331L435 332L434 331z"/>
<path style="fill:#c5cdde; stroke:none;" d="M67 332L68 333L67 332z"/>
<path style="fill:#acb8d1; stroke:none;" d="M110 332L111 333L110 332M222 332L223 333L222 332M235 332L236 333L235 332M296 332L297 333L296 332M391 332L392 333L391 332M399 332L400 333L399 332z"/>
<path style="fill:#8a9bc0; stroke:none;" d="M433 332L434 333L433 332z"/>
<path style="fill:#c5cdde; stroke:none;" d="M460.333 332.667L460.667 333.333L460.333 332.667z"/>
<path style="fill:#8a9bc0; stroke:none;" d="M67 333L68 334L67 333z"/>
<path style="fill:#acb8d1; stroke:none;" d="M111 333L112 334L111 333M221 333L222 334L221 333z"/>
<path style="fill:#c5cdde; stroke:none;" d="M234 333L235 334L234 333M296.333 333.667L296.667 334.333L296.333 333.667z"/>
<path style="fill:#8a9bc0; stroke:none;" d="M393 333L394 334L393 333z"/>
<path style="fill:#acb8d1; stroke:none;" d="M394 333L395 334L394 333z"/>
<path style="fill:#c5cdde; stroke:none;" d="M395 333L396 334L395 333z"/>
<path style="fill:#acb8d1; stroke:none;" d="M396 333L397 334L396 333z"/>
<path style="fill:#8a9bc0; stroke:none;" d="M397 333L398 334L397 333M432 333L433 334L432 333M68 334L69 335L68 334M112 334L113 335L112 334z"/>
<path style="fill:#acb8d1; stroke:none;" d="M220 334L221 335L220 334z"/>
<path style="fill:#8a9bc0; stroke:none;" d="M234 334L235 335L234 334M331 334L331 339L332 339L331 334M431 334L432 335L431 334M460.333 334.667L460.667 335.333L460.333 334.667z"/>
<path style="fill:#acb8d1; stroke:none;" d="M69 335L70 336L69 335z"/>
<path style="fill:#8a9bc0; stroke:none;" d="M113 335L114 336L113 335z"/>
<path style="fill:#acb8d1; stroke:none;" d="M219 335L220 336L219 335M233 335L234 336L233 335z"/>
<path style="fill:#8a9bc0; stroke:none;" d="M430 335L428 338L430 335z"/>
<path style="fill:#acb8d1; stroke:none;" d="M70 336L71 337L70 336z"/>
<path style="fill:#8a9bc0; stroke:none;" d="M114 336L115 337L114 336z"/>
<path style="fill:#acb8d1; stroke:none;" d="M218 336L219 337L218 336M232 336L233 337L232 336z"/>
<path style="fill:#c5cdde; stroke:none;" d="M430 336L431 337L430 336z"/>
<path style="fill:#acb8d1; stroke:none;" d="M71 337L72 338L71 337M115 337L116 338L115 337M217 337L218 338L217 337M231 337L232 338L231 337z"/>
<path style="fill:#8a9bc0; stroke:none;" d="M295.333 337.667L295.667 338.333L295.333 337.667z"/>
<path style="fill:#acb8d1; stroke:none;" d="M429 337L430 338L429 337M72 338L73 339L72 338M116 338L117 339L116 338M216 338L217 339L216 338z"/>
<path style="fill:#c5cdde; stroke:none;" d="M230 338L231 339L230 338z"/>
<path style="fill:#8a9bc0; stroke:none;" d="M231 338L232 339L231 338M427 338L428 339L427 338z"/>
<path style="fill:#c5cdde; stroke:none;" d="M459.333 338.667L459.667 339.333L459.333 338.667z"/>
<path style="fill:#acb8d1; stroke:none;" d="M73 339L74 340L73 339M117 339L118 340L117 339M215 339L216 340L215 339z"/>
<path style="fill:#8a9bc0; stroke:none;" d="M230 339L231 340L230 339z"/>
<path style="fill:#c5cdde; stroke:none;" d="M295 339L296 340L295 339M331.333 339.667L331.667 340.333L331.333 339.667z"/>
<path style="fill:#8a9bc0; stroke:none;" d="M426 339L427 340L426 339z"/>
<path style="fill:#acb8d1; stroke:none;" d="M74 340L75 341L74 340M118 340L119 341L118 340M214 340L215 341L214 340z"/>
<path style="fill:#8a9bc0; stroke:none;" d="M229 340L230 341L229 340M425 340L426 341L425 340M459.333 340.667L459.667 341.333L459.333 340.667z"/>
<path style="fill:#acb8d1; stroke:none;" d="M75 341L76 342L75 341M119 341L120 342L119 341z"/>
<path style="fill:#8a9bc0; stroke:none;" d="M212 341L211 343L212 341z"/>
<path style="fill:#acb8d1; stroke:none;" d="M213 341L214 342L213 341z"/>
<path style="fill:#8a9bc0; stroke:none;" d="M228 341L229 342L228 341z"/>
<path style="fill:#acb8d1; stroke:none;" d="M424 341L425 342L424 341M76 342L77 343L76 342z"/>
<path style="fill:#c5cdde; stroke:none;" d="M120 342L121 343L120 342z"/>
<path style="fill:#8a9bc0; stroke:none;" d="M121 342L122 343L121 342z"/>
<path style="fill:#c5cdde; stroke:none;" d="M212 342L213 343L212 342z"/>
<path style="fill:#acb8d1; stroke:none;" d="M227 342L228 343L227 342z"/>
<path style="fill:#8a9bc0; stroke:none;" d="M294 342L295 343L294 342z"/>
<path style="fill:#acb8d1; stroke:none;" d="M423 342L424 343L423 342M77 343L78 344L77 343z"/>
<path style="fill:#8a9bc0; stroke:none;" d="M122 343L123 344L122 343z"/>
<path style="fill:#acb8d1; stroke:none;" d="M210 343L211 344L210 343M226 343L227 344L226 343z"/>
<path style="fill:#c5cdde; stroke:none;" d="M294 343L295 344L294 343z"/>
<path style="fill:#8a9bc0; stroke:none;" d="M332 343L333 344L332 343z"/>
<path style="fill:#acb8d1; stroke:none;" d="M422 343L423 344L422 343M78 344L79 345L78 344M123 344L124 345L123 344M209 344L210 345L209 344M225 344L226 345L225 344z"/>
<path style="fill:#c5cdde; stroke:none;" d="M332 344L333 345L332 344z"/>
<path style="fill:#8a9bc0; stroke:none;" d="M420 344L421 345L420 344z"/>
<path style="fill:#c5cdde; stroke:none;" d="M421 344L422 345L421 344M458 344L459 345L458 344z"/>
<path style="fill:#acb8d1; stroke:none;" d="M79 345L80 346L79 345M124 345L125 346L124 345z"/>
<path style="fill:#8a9bc0; stroke:none;" d="M125 345L126 346L125 345M207 345L208 346L207 345z"/>
<path style="fill:#acb8d1; stroke:none;" d="M208 345L209 346L208 345M224 345L225 346L224 345M293 345L294 346L293 345M419 345L420 346L419 345M458 345L459 346L458 345z"/>
<path style="fill:#8a9bc0; stroke:none;" d="M80 346L81 347L80 346M126 346L127 347L126 346M206 346L207 347L206 346M223 346L224 347L223 346z"/>
<path style="fill:#acb8d1; stroke:none;" d="M333 346L334 347L333 346M418 346L419 347L418 346z"/>
<path style="fill:#8a9bc0; stroke:none;" d="M458.333 346.667L458.667 347.333L458.333 346.667M81 347L82 348L81 347z"/>
<path style="fill:#c5cdde; stroke:none;" d="M82 347L83 348L82 347z"/>
<path style="fill:#acb8d1; stroke:none;" d="M127 347L128 348L127 347M205 347L206 348L205 347z"/>
<path style="fill:#8a9bc0; stroke:none;" d="M222 347L223 348L222 347M292 347L293 348L292 347M334 347L335 348L334 347M416 347L417 348L416 347z"/>
<path style="fill:#acb8d1; stroke:none;" d="M83 348L84 349L83 348z"/>
<path style="fill:#c5cdde; stroke:none;" d="M128 348L129 349L128 348z"/>
<path style="fill:#8a9bc0; stroke:none;" d="M129 348L130 349L129 348M203 348L204 349L203 348z"/>
<path style="fill:#c5cdde; stroke:none;" d="M204 348L205 349L204 348M220 348L221 349L220 348z"/>
<path style="fill:#8a9bc0; stroke:none;" d="M221 348L222 349L221 348z"/>
<path style="fill:#c5cdde; stroke:none;" d="M292 348L293 349L292 348z"/>
<path style="fill:#acb8d1; stroke:none;" d="M334 348L335 349L334 348M415 348L416 349L415 348M84 349L85 350L84 349M130 349L131 350L130 349M202 349L203 350L202 349M219 349L220 350L219 349M291 349L292 350L291 349z"/>
<path style="fill:#8a9bc0; stroke:none;" d="M335 349L336 350L335 349z"/>
<path style="fill:#acb8d1; stroke:none;" d="M413 349L414 350L413 349z"/>
<path style="fill:#8a9bc0; stroke:none;" d="M85 350L86 351L85 350z"/>
<path style="fill:#acb8d1; stroke:none;" d="M132 350L133 351L132 350z"/>
<path style="fill:#8a9bc0; stroke:none;" d="M200 350L201 351L200 350z"/>
<path style="fill:#c5cdde; stroke:none;" d="M201 350L202 351L201 350z"/>
<path style="fill:#acb8d1; stroke:none;" d="M218 350L219 351L218 350z"/>
<path style="fill:#8a9bc0; stroke:none;" d="M290 350L291 351L290 350M336 350L338 352L336 350M411 350L412 351L411 350z"/>
<path style="fill:#c5cdde; stroke:none;" d="M412 350L413 351L412 350M457 350L458 351L457 350z"/>
<path style="fill:#8a9bc0; stroke:none;" d="M86 351L87 352L86 351z"/>
<path style="fill:#acb8d1; stroke:none;" d="M87 351L88 352L87 351z"/>
<path style="fill:#c5cdde; stroke:none;" d="M133 351L134 352L133 351z"/>
<path style="fill:#8a9bc0; stroke:none;" d="M134 351L135 352L134 351M198 351L199 352L198 351z"/>
<path style="fill:#c5cdde; stroke:none;" d="M199 351L200 352L199 351z"/>
<path style="fill:#8a9bc0; stroke:none;" d="M217 351L218 352L217 351z"/>
<path style="fill:#c5cdde; stroke:none;" d="M290 351L291 352L290 351M336 351L337 352L336 351z"/>
<path style="fill:#8a9bc0; stroke:none;" d="M409 351L410 352L409 351z"/>
<path style="fill:#c5cdde; stroke:none;" d="M410 351L411 352L410 351z"/>
<path style="fill:#acb8d1; stroke:none;" d="M457 351L458 352L457 351M88 352L89 353L88 352z"/>
<path style="fill:#c5cdde; stroke:none;" d="M135 352L136 353L135 352z"/>
<path style="fill:#8a9bc0; stroke:none;" d="M136 352L137 353L136 352M196 352L197 353L196 352z"/>
<path style="fill:#acb8d1; stroke:none;" d="M197 352L198 353L197 352z"/>
<path style="fill:#c5cdde; stroke:none;" d="M215 352L216 353L215 352z"/>
<path style="fill:#8a9bc0; stroke:none;" d="M216 352L217 353L216 352z"/>
<path style="fill:#acb8d1; stroke:none;" d="M289 352L290 353L289 352M337 352L338 353L337 352z"/>
<path style="fill:#8a9bc0; stroke:none;" d="M407 352L408 353L407 352z"/>
<path style="fill:#c5cdde; stroke:none;" d="M408 352L409 353L408 352z"/>
<path style="fill:#8a9bc0; stroke:none;" d="M457.333 352.667L457.667 353.333L457.333 352.667M89 353L90 354L89 353z"/>
<path style="fill:#c5cdde; stroke:none;" d="M90 353L91 354L90 353M137 353L138 354L137 353z"/>
<path style="fill:#8a9bc0; stroke:none;" d="M138 353L139 354L138 353M194 353L195 354L194 353z"/>
<path style="fill:#acb8d1; stroke:none;" d="M195 353L196 354L195 353M214 353L215 354L214 353M288 353L289 354L288 353M338 353L339 354L338 353z"/>
<path style="fill:#8a9bc0; stroke:none;" d="M405 353L406 354L405 353z"/>
<path style="fill:#c5cdde; stroke:none;" d="M406 353L407 354L406 353z"/>
<path style="fill:#acb8d1; stroke:none;" d="M91 354L92 355L91 354z"/>
<path style="fill:#c5cdde; stroke:none;" d="M139 354L140 355L139 354z"/>
<path style="fill:#8a9bc0; stroke:none;" d="M140 354L141 355L140 354M192 354L193 355L192 354z"/>
<path style="fill:#acb8d1; stroke:none;" d="M193 354L194 355L193 354z"/>
<path style="fill:#8a9bc0; stroke:none;" d="M213 354L214 355L213 354M287 354L288 355L287 354z"/>
<path style="fill:#c5cdde; stroke:none;" d="M339 354L340 355L339 354z"/>
<path style="fill:#8a9bc0; stroke:none;" d="M340 354L341 355L340 354M402 354L403 355L402 354z"/>
<path style="fill:#acb8d1; stroke:none;" d="M403 354L404 355L403 354z"/>
<path style="fill:#8a9bc0; stroke:none;" d="M92 355L93 356L92 355z"/>
<path style="fill:#c5cdde; stroke:none;" d="M93 355L94 356L93 355M142 355L143 356L142 355z"/>
<path style="fill:#8a9bc0; stroke:none;" d="M143 355L144 356L143 355M190 355L191 356L190 355z"/>
<path style="fill:#c5cdde; stroke:none;" d="M191 355L192 356L191 355z"/>
<path style="fill:#acb8d1; stroke:none;" d="M211 355L212 356L211 355M286 355L287 356L286 355z"/>
<path style="fill:#8a9bc0; stroke:none;" d="M341 355L342 356L341 355M399 355L400 356L399 355z"/>
<path style="fill:#acb8d1; stroke:none;" d="M400 355L401 356L400 355M94 356L95 357L94 356M145 356L146 357L145 356z"/>
<path style="fill:#8a9bc0; stroke:none;" d="M146 356L147 357L146 356M187 356L188 357L187 356z"/>
<path style="fill:#c5cdde; stroke:none;" d="M188 356L189 357L188 356M209 356L210 357L209 356z"/>
<path style="fill:#8a9bc0; stroke:none;" d="M210 356L211 357L210 356z"/>
<path style="fill:#acb8d1; stroke:none;" d="M285 356L286 357L285 356z"/>
<path style="fill:#c5cdde; stroke:none;" d="M342 356L343 357L342 356z"/>
<path style="fill:#8a9bc0; stroke:none;" d="M343 356L344 357L343 356M395.667 356.333L396.333 356.667L395.667 356.333z"/>
<path style="fill:#c5cdde; stroke:none;" d="M397 356L398 357L397 356M456 356L457 357L456 356z"/>
<path style="fill:#acb8d1; stroke:none;" d="M96 357L97 358L96 357z"/>
<path style="fill:#c5cdde; stroke:none;" d="M148 357L149 358L148 357z"/>
<path style="fill:#8a9bc0; stroke:none;" d="M149 357L150 358L149 357M184 357L185 358L184 357z"/>
<path style="fill:#c5cdde; stroke:none;" d="M185 357L186 358L185 357z"/>
<path style="fill:#acb8d1; stroke:none;" d="M208 357L209 358L208 357z"/>
<path style="fill:#8a9bc0; stroke:none;" d="M283 357L284 358L283 357z"/>
<path style="fill:#c5cdde; stroke:none;" d="M284 357L285 358L284 357M345 357L346 358L345 357z"/>
<path style="fill:#8a9bc0; stroke:none;" d="M346.667 357.333L347.333 357.667L346.667 357.333M389 357L389 358L392 358L389 357z"/>
<path style="fill:#acb8d1; stroke:none;" d="M392 357L393 358L392 357z"/>
<path style="fill:#c5cdde; stroke:none;" d="M393 357L394 358L393 357z"/>
<path style="fill:#acb8d1; stroke:none;" d="M456 357L457 358L456 357z"/>
<path style="fill:#8a9bc0; stroke:none;" d="M97 358L98 359L97 358z"/>
<path style="fill:#c5cdde; stroke:none;" d="M98 358L99 359L98 358M152 358L153 359L152 358z"/>
<path style="fill:#8a9bc0; stroke:none;" d="M153.667 358.333L154.333 358.667L153.667 358.333M179.667 358.333L180.333 358.667L179.667 358.333z"/>
<path style="fill:#c5cdde; stroke:none;" d="M181 358L182 359L181 358M206 358L207 359L206 358z"/>
<path style="fill:#8a9bc0; stroke:none;" d="M207 358L208 359L207 358M281 358L282 359L281 358z"/>
<path style="fill:#c5cdde; stroke:none;" d="M282 358L283 359L282 358M349.667 358.333L350.333 358.667L349.667 358.333z"/>
<path style="fill:#8a9bc0; stroke:none;" d="M351 358L351 359L374 359L351 358z"/>
<path style="fill:#c5cdde; stroke:none;" d="M374 358L374 359L381 359L374 358z"/>
<path style="fill:#8a9bc0; stroke:none;" d="M456.333 358.667L456.667 359.333L456.333 358.667M99 359L100 360L99 359z"/>
<path style="fill:#c5cdde; stroke:none;" d="M100 359L101 360L100 359M157.667 359.333L158.333 359.667L157.667 359.333z"/>
<path style="fill:#8a9bc0; stroke:none;" d="M159 359L159 360L166 360L159 359M168 359L168 360L175 360L168 359z"/>
<path style="fill:#c5cdde; stroke:none;" d="M175.667 359.333L176.333 359.667L175.667 359.333M204 359L205 360L204 359z"/>
<path style="fill:#8a9bc0; stroke:none;" d="M205 359L206 360L205 359M278 359L279 360L278 359z"/>
<path style="fill:#acb8d1; stroke:none;" d="M279 359L280 360L279 359z"/>
<path style="fill:#8a9bc0; stroke:none;" d="M101 360L102 361L101 360z"/>
<path style="fill:#c5cdde; stroke:none;" d="M102 360L103 361L102 360z"/>
<path style="fill:#acb8d1; stroke:none;" d="M203 360L204 361L203 360z"/>
<path style="fill:#8a9bc0; stroke:none;" d="M274.667 360.333L275.333 360.667L274.667 360.333z"/>
<path style="fill:#c5cdde; stroke:none;" d="M276 360L277 361L276 360z"/>
<path style="fill:#8a9bc0; stroke:none;" d="M103 361L104 362L103 361z"/>
<path style="fill:#c5cdde; stroke:none;" d="M104 361L105 362L104 361z"/>
<path style="fill:#acb8d1; stroke:none;" d="M201 361L202 362L201 361z"/>
<path style="fill:#8a9bc0; stroke:none;" d="M266 361L266 362L270 362L266 361z"/>
<path style="fill:#acb8d1; stroke:none;" d="M270 361L271 362L270 361z"/>
<path style="fill:#c5cdde; stroke:none;" d="M271 361L272 362L271 361M455.333 361.667L455.667 362.333L455.333 361.667z"/>
<path style="fill:#8a9bc0; stroke:none;" d="M105 362L106 363L105 362z"/>
<path style="fill:#c5cdde; stroke:none;" d="M106 362L107 363L106 362z"/>
<path style="fill:#acb8d1; stroke:none;" d="M199 362L200 363L199 362z"/>
<path style="fill:#8a9bc0; stroke:none;" d="M200 362L201 363L200 362M260 362L261 363L260 362z"/>
<path style="fill:#acb8d1; stroke:none;" d="M261 362L262 363L261 362z"/>
<path style="fill:#c5cdde; stroke:none;" d="M262 362L263 363L262 362z"/>
<path style="fill:#8a9bc0; stroke:none;" d="M107 363L108 364L107 363z"/>
<path style="fill:#c5cdde; stroke:none;" d="M108 363L109 364L108 363z"/>
<path style="fill:#acb8d1; stroke:none;" d="M197 363L198 364L197 363M259 363L260 364L259 363z"/>
<path style="fill:#8a9bc0; stroke:none;" d="M455.333 363.667L455.667 364.333L455.333 363.667M109 364L110 365L109 364z"/>
<path style="fill:#c5cdde; stroke:none;" d="M110 364L111 365L110 364M194 364L195 365L194 364z"/>
<path style="fill:#8a9bc0; stroke:none;" d="M195 364L196 365L195 364M112 365L113 366L112 365z"/>
<path style="fill:#c5cdde; stroke:none;" d="M113 365L114 366L113 365M192 365L193 366L192 365z"/>
<path style="fill:#8a9bc0; stroke:none;" d="M193 365L194 366L193 365M258.333 365.667L258.667 366.333L258.333 365.667M114 366L115 367L114 366z"/>
<path style="fill:#c5cdde; stroke:none;" d="M115 366L116 367L115 366z"/>
<path style="fill:#acb8d1; stroke:none;" d="M190 366L191 367L190 366z"/>
<path style="fill:#8a9bc0; stroke:none;" d="M191 366L192 367L191 366z"/>
<path style="fill:#c5cdde; stroke:none;" d="M454 366L455 367L454 366z"/>
<path style="fill:#8a9bc0; stroke:none;" d="M117 367L118 368L117 367z"/>
<path style="fill:#c5cdde; stroke:none;" d="M118 367L119 368L118 367M187 367L188 368L187 367z"/>
<path style="fill:#8a9bc0; stroke:none;" d="M188 367L189 368L188 367z"/>
<path style="fill:#acb8d1; stroke:none;" d="M454 367L455 368L454 367z"/>
<path style="fill:#8a9bc0; stroke:none;" d="M120 368L121 369L120 368z"/>
<path style="fill:#c5cdde; stroke:none;" d="M121 368L122 369L121 368M184 368L185 369L184 368z"/>
<path style="fill:#8a9bc0; stroke:none;" d="M185 368L186 369L185 368M259 368L260 369L259 368z"/>
<path style="fill:#c5cdde; stroke:none;" d="M260 368L261 369L260 368M306 368L306 369L386 369L361 368L306 368z"/>
<path style="fill:#8a9bc0; stroke:none;" d="M454 368L455 369L454 368M123 369L124 370L123 369z"/>
<path style="fill:#acb8d1; stroke:none;" d="M124 369L125 370L124 369z"/>
<path style="fill:#c5cdde; stroke:none;" d="M125 369L126 370L125 369M180 369L181 370L180 369z"/>
<path style="fill:#acb8d1; stroke:none;" d="M181 369L182 370L181 369z"/>
<path style="fill:#8a9bc0; stroke:none;" d="M182 369L183 370L182 369M261 369L262 370L261 369z"/>
<path style="fill:#acb8d1; stroke:none;" d="M262 369L263 370L262 369z"/>
<path style="fill:#c5cdde; stroke:none;" d="M263 369L264 370L263 369M287 369L287 370L291 370L287 369z"/>
<path style="fill:#acb8d1; stroke:none;" d="M291 369L292 370L291 369z"/>
<path style="fill:#8a9bc0; stroke:none;" d="M292 369L292 370L300 370L292 369M410 369L410 370L427 370L410 369z"/>
<path style="fill:#acb8d1; stroke:none;" d="M427 369L428 370L427 369z"/>
<path style="fill:#c5cdde; stroke:none;" d="M428 369L428 370L436 370L428 369M447 369L447 370L453 370L447 369z"/>
<path style="fill:#8a9bc0; stroke:none;" d="M453 369L454 370L453 369M127 370L128 371L127 370z"/>
<path style="fill:#acb8d1; stroke:none;" d="M128 370L129 371L128 370z"/>
<path style="fill:#c5cdde; stroke:none;" d="M129 370L130 371L129 370M176 370L177 371L176 370z"/>
<path style="fill:#acb8d1; stroke:none;" d="M177 370L178 371L177 370z"/>
<path style="fill:#8a9bc0; stroke:none;" d="M178 370L179 371L178 370M266 370L266 371L282 371L266 370M131.667 371.333L132.333 371.667L131.667 371.333z"/>
<path style="fill:#acb8d1; stroke:none;" d="M133 371L134 372L133 371z"/>
<path style="fill:#c5cdde; stroke:none;" d="M134 371L135 372L134 371M171.667 371.333L172.333 371.667L171.667 371.333z"/>
<path style="fill:#8a9bc0; stroke:none;" d="M173.667 371.333L174.333 371.667L173.667 371.333M137 372L137 373L140 373L137 372z"/>
<path style="fill:#c5cdde; stroke:none;" d="M140.667 372.333L141.333 372.667L140.667 372.333M164.667 372.333L165.333 372.667L164.667 372.333z"/>
<path style="fill:#acb8d1; stroke:none;" d="M166 372L167 373L166 372z"/>
<path style="fill:#8a9bc0; stroke:none;" d="M167 372L167 373L170 373L167 372M145 373L145 374L161 374L145 373z"/>
</svg>
